<svg width="375" height="182" viewBox="0 0 375 182" fill="none" xmlns="http://www.w3.org/2000/svg">
  <path d="M-0.0837319 1.80324C5.75781 7.4807 11.5009 13.2894 17.3424 18.9669C20.1976 21.7236 23.184 24.3818 26.1704 26.9744C26.9252 27.6308 26.8595 28.0902 26.4657 28.8122C25.3827 30.7484 24.3982 32.7175 23.2824 34.6537C21.1493 38.3621 19.5084 42.3331 16.4892 45.5164C15.7672 46.2712 16.2594 46.7962 17.1127 47.0916C23.3152 49.356 28.4676 53.5238 34.1451 56.74C34.4404 56.9041 34.6373 57.5932 34.5389 57.9543C32.7011 64.0583 30.7648 70.1296 28.9599 76.2337C27.2534 82.0424 25.7437 87.9167 24.1357 93.7583C23.906 94.6115 24.07 95.1038 25.0218 95.3335C27.5159 95.957 29.9772 96.6462 32.4714 97.3026C36.9345 98.484 41.3977 99.7311 45.9266 100.814C50.9805 102.028 56.0344 103.078 61.1211 104.161C62.0072 104.358 62.2698 104.818 62.2698 105.671C62.2369 107.935 62.3026 110.233 62.2698 112.497C62.2041 116.599 62.1713 120.669 61.9416 124.771C61.8759 126.084 62.2041 126.313 63.3856 126.149C65.4203 125.887 67.4878 125.624 69.5225 125.624C73.3293 125.591 77.1361 125.788 80.943 125.854C83.5028 125.887 83.4699 125.887 84.0607 128.381C85.5375 134.616 87.0471 140.852 88.5895 147.054C89.9022 152.338 91.3462 157.589 92.6917 162.839C92.9214 163.693 93.2496 164.283 94.2669 163.988C95.5796 163.594 96.9252 163.168 98.2707 162.807C103.456 161.363 108.674 159.951 113.859 158.475C119.176 156.932 124.492 155.324 129.808 153.65C130.695 153.355 131.121 153.421 131.548 154.208C134.665 159.886 138.833 164.973 140.999 171.175C141.327 172.061 141.918 172.225 142.673 171.569C143.001 171.306 143.264 171.011 143.625 170.781C148.908 167.696 154.192 164.612 159.508 161.592C159.837 161.428 160.657 161.691 160.952 162.019C163.381 164.612 165.678 167.368 168.139 169.895C174.079 175.999 180.085 182.038 186.058 188.076C187.535 189.586 187.535 189.586 189.077 188.01C194.492 182.497 199.973 177.017 205.355 171.47C208.275 168.484 211.098 165.399 213.822 162.216C214.609 161.297 215.167 161.133 216.086 161.756C216.414 161.986 216.808 162.117 217.169 162.347C222.256 165.432 227.966 167.565 232.495 171.602C233.25 172.258 233.807 171.93 234.136 171.044C236.367 164.808 240.535 159.656 243.751 153.979C243.915 153.683 244.604 153.421 244.933 153.519C251.299 155.39 257.6 157.424 263.967 159.262C269.152 160.772 274.37 162.085 279.588 163.496C281.984 164.152 281.951 164.152 282.542 161.855C284.183 155.554 285.955 149.253 287.53 142.952C288.843 137.635 289.926 132.253 291.206 126.904C291.304 126.477 291.96 125.92 292.354 125.887C295.176 125.755 297.999 125.624 300.854 125.69C304.562 125.755 308.238 126.018 311.913 126.182C312.898 126.248 313.423 125.985 313.128 124.837C312.931 124.147 312.767 123.425 312.767 122.703C312.734 116.928 312.767 111.152 312.734 105.376C312.734 104.457 313.259 104.26 313.948 104.129C318.018 103.275 322.12 102.553 326.156 101.536C334.033 99.567 341.876 97.3682 349.719 95.3663C350.934 95.071 351.065 94.5131 350.77 93.4957C349.588 89.3607 348.439 85.1929 347.258 81.0579C345.026 73.4113 342.762 65.7648 340.596 58.1183C340.465 57.6917 340.694 56.8713 341.023 56.6744C346.634 53.4582 351.754 49.356 357.924 47.0916C359.138 46.6321 359.105 46.1071 358.318 45.1882C357.3 44.0396 356.316 42.8253 355.561 41.4798C353.395 37.6729 351.295 33.8333 349.227 29.9608C348.078 27.7948 348.111 27.762 350.08 26.154C350.277 25.9899 350.441 25.793 350.638 25.6289C355.134 21.297 359.63 16.965 364.093 12.6003C367.835 8.95749 371.51 5.28194 375.284 1.672C375.744 1.21256 376.006 0.851536 376.006 0.457738L373.807 0.457738C373.807 1.04845 373.217 1.60637 372.035 2.82062C367.244 7.612 362.518 12.4362 357.661 17.1619C354.379 20.3452 350.901 23.3317 347.291 26.6134C346.109 24.4475 345.026 22.5112 344.042 20.5421C343.878 20.214 343.976 19.492 344.239 19.2622C348.374 15.3898 352.509 11.5501 356.677 7.67762C358.843 5.67574 360.976 3.64107 363.175 1.672C363.667 1.24538 363.929 0.851536 363.897 0.457738L362.19 0.457737C355.823 6.43055 349.49 12.3377 342.992 18.409C341.548 16.1118 340.137 13.8145 338.725 11.5173C341.81 8.99035 344.862 6.46338 347.882 3.96924C348.833 3.18161 349.785 2.39399 350.671 1.54073C351.032 1.17974 351.229 0.818715 351.196 0.490544L349.654 0.490544C348.538 1.50789 347.553 2.52524 346.47 3.41132C344.108 5.38038 341.679 7.31664 339.283 9.25287C338.364 10.0077 337.675 10.4999 336.724 9.08878C335.805 7.67763 334.459 6.52898 333.278 5.2491C334.82 4.03484 336.297 2.82059 337.807 1.63916C338.332 1.24535 338.561 0.851536 338.561 0.490544L337.281 0.490544C335.477 1.80324 333.934 2.88626 332.392 3.96924C332.195 4.10051 331.768 4.16613 331.571 4.03486C328.946 2.82061 326.32 1.57352 324.023 0.490543C324.023 0.490543 324.023 0.490543 324.056 0.490543L310.502 0.490543C310.469 2.06578 310.174 3.60822 309.682 5.21628C308.271 9.77794 306.138 13.8802 302.954 17.4245C300.526 20.1155 297.408 21.822 294.159 23.3317C290.713 24.9397 287.07 24.8413 283.329 24.6444C283.329 22.8722 283.329 21.1328 283.329 19.2951C285.069 18.8684 286.874 18.5731 288.613 18.0152C296.719 15.3241 301.97 9.90921 303.906 1.57354C303.972 1.21254 304.037 0.884388 304.07 0.523395L302.495 0.523395C302.528 2.95189 301.543 5.11783 300.263 7.18535C296.949 12.5018 292.288 16.1446 285.955 17.2932C285.069 17.4573 284.15 17.5557 283.067 17.7198C282.607 15.6523 282.181 13.7817 281.721 11.747C282.607 11.5173 283.461 11.2547 284.347 11.025C288.285 9.97487 291.566 7.97298 293.568 4.33023C294.29 3.01752 294.684 1.73764 294.75 0.523395L293.371 0.523395C293.404 2.52527 292.256 4.33022 290.221 6.3321C287.924 8.59652 284.905 9.58106 281.787 10.2046C281.459 10.2702 280.934 9.97484 280.737 9.67948C279.883 8.46523 279.096 7.21817 278.407 6.168C280.277 5.31475 282.213 4.65839 283.92 3.57541C285.233 2.75496 285.889 1.63918 285.889 0.556202L283.854 0.556202C283.822 1.04847 283.559 1.54073 283.1 2.00019C281.262 3.87079 278.899 4.46147 276.47 4.42865C275.387 4.42865 274.337 3.31287 273.221 2.75496C271.581 1.93453 269.907 1.17972 268.693 0.589008C268.725 0.556186 268.758 0.556201 268.791 0.523395L258.65 0.523395C258.65 4.85532 256.452 8.43241 253.236 11.1563C249.79 14.077 245.687 14.9303 241.191 13.8801C240.24 13.6504 239.879 13.3551 239.944 12.3705C240.01 11.4516 239.944 10.5328 239.944 9.54824C241.651 9.54824 243.128 9.58106 244.604 9.54824C249.855 9.41696 253.4 6.23365 254.548 2.39398C254.745 1.77045 254.811 1.11408 254.844 0.490543L253.334 0.490543C253.334 3.05031 251.726 5.51163 249.199 6.88997C246.213 8.49803 242.964 8.36681 239.715 7.90735C239.485 7.87455 239.222 7.57915 239.058 7.34943C238.271 6.168 237.516 4.95374 236.663 3.60822C238.271 3.87076 239.813 4.29741 241.356 4.33023C242.964 4.36304 244.637 4.23177 246.18 3.83795C247.558 3.47696 248.543 1.86891 248.51 0.523395L246.967 0.523395C246.967 1.21256 246.18 2.16426 245.491 2.52526C244.67 2.95189 243.587 3.05034 242.668 3.01752C239.452 2.88625 236.367 2.16425 233.479 0.7531C233.414 0.720279 233.381 0.654635 233.348 0.490542L226.719 0.490542C226.719 0.621814 226.719 0.785907 226.719 0.95C226.62 4.03485 223.667 6.88999 220.582 7.02126C220.024 7.05408 219.466 7.21816 218.908 7.21816C217.76 7.25096 216.742 7.18535 216.349 5.70854C215.725 3.31287 214.215 1.57355 211.688 0.523394L211.721 0.523394L205.847 0.523394C205.847 0.523394 205.847 0.523379 205.847 0.556201C205.847 1.04846 205.191 1.70481 204.665 1.93453C200.924 3.60822 197.544 2.32836 193.836 0.523394L181.299 0.523394C181.332 0.523394 181.365 0.5562 181.398 0.5562C177.722 2.13144 174.473 3.60825 170.83 2.00019C170.207 1.73764 169.747 1.04846 169.222 0.5562C169.255 0.523378 169.255 0.523363 169.288 0.490542L163.414 0.490542C163.414 0.490542 163.446 0.490572 163.446 0.523394C160.887 1.60637 159.443 3.47698 158.688 5.9383C158.524 6.43056 157.867 7.02124 157.375 7.05406C154.947 7.28378 151.599 6.72591 149.893 4.52712C148.941 3.31287 148.514 1.90169 148.514 0.490541L141.885 0.490541C141.918 0.687441 141.918 0.851564 141.951 1.04846C139.03 1.70482 136.109 2.49242 133.156 2.95186C132.007 3.14876 130.629 2.91904 129.546 2.4596C128.89 2.19705 128.233 1.21253 128.168 0.490541L126.527 0.490541C126.527 0.556169 126.527 0.588991 126.527 0.654634C126.592 2.06578 127.741 3.70667 129.349 3.93639C131.318 4.23175 133.386 4.1333 135.387 4.10048C136.372 4.06766 137.389 3.77229 138.407 3.60822C137.586 4.88809 136.963 6.23366 136.011 7.25101C135.453 7.84172 134.337 8.0058 133.451 8.10425C129.546 8.49806 125.969 7.94016 123.278 4.69121C122.162 3.34569 121.702 1.93454 121.735 0.523393L120.258 0.523393C120.193 2.32836 120.948 3.93639 122.063 5.41318C124.229 8.26831 127.216 9.58104 130.793 9.58104C132.171 9.58104 133.55 9.58104 135.158 9.58104C135.158 10.664 135.223 11.8455 135.125 13.0269C135.092 13.3223 134.6 13.7161 134.239 13.8145C127.413 15.6523 120.718 12.1408 118.322 6.59465C117.567 4.8225 116.452 2.98468 116.386 1.1469C116.386 0.949983 116.386 0.720293 116.386 0.523393L106.213 0.523393C106.245 0.523393 106.278 0.556199 106.278 0.556199C104.67 1.37663 102.504 2.29553 100.502 3.50978C99.1896 4.33023 97.9097 4.75685 96.4985 4.16614C94.9561 3.5426 93.4137 2.8206 92.0353 1.90172C91.4774 1.50791 91.2149 1.01566 91.2805 0.523393L89.213 0.523393C89.213 1.63919 89.9678 2.75498 91.4774 3.70668C93.0855 4.72403 94.9561 5.34757 96.7283 6.13519C95.9078 7.34944 94.9561 8.7934 93.9388 10.3358C88.9505 9.3513 84.4545 7.64478 82.1901 2.4596C81.8947 1.80324 81.7634 1.17973 81.7634 0.556199L80.3195 0.556199C80.2538 2.7878 81.5009 4.65839 82.9449 6.3649C85.0452 8.85904 87.8019 10.4671 91.0508 11.0907C91.8384 11.2547 92.6261 11.5501 93.4137 11.7798C92.9214 13.8145 92.4948 15.7179 92.0353 17.687C84.0278 17.1619 78.3832 13.0597 74.4123 6.59465C73.1652 4.55995 72.6073 2.52525 72.6401 0.556199L71.1633 0.556199C71.1305 3.01752 72.0822 5.28192 73.2308 7.31662C75.9547 12.0752 79.8928 15.7179 85.1108 17.6542C86.8173 18.2777 88.6879 18.5731 90.4929 18.9341C91.4118 19.0982 91.9697 19.3607 91.9041 20.4765C91.8056 21.8548 91.8712 23.2332 91.8712 24.5787C84.9139 25.6289 79.1052 23.3973 73.9857 19.131C68.8333 14.8647 66.3063 9.02313 64.7639 2.75496C64.5998 2.0658 64.5342 1.31101 64.567 0.556199L51.0461 0.556199C51.0461 0.556199 51.0461 0.556199 51.079 0.556199C48.8145 1.60635 46.2548 2.82062 43.695 4.00205C43.3996 4.13332 42.8417 4.13333 42.5792 3.96924C41.0368 2.95189 39.56 1.8689 37.7878 0.589005C37.7878 0.589005 37.8206 0.58902 37.8206 0.556199L36.4423 0.556199C36.4423 1.11409 37.1643 1.63916 38.6083 2.91905C39.5928 3.80513 40.7742 4.49429 41.7916 5.21628C40.2491 6.92281 38.8052 8.56371 37.1315 10.4015C33.1605 7.11972 29.288 3.93642 25.153 0.523392L23.709 0.523392C23.709 0.884384 23.9388 1.24535 24.3654 1.60634C28.3035 4.92093 32.2416 8.2355 36.2782 11.6157C34.9327 13.8145 33.5215 16.0789 32.0447 18.4746C25.5796 12.4362 19.2787 6.52901 12.8464 0.556198L11.0743 0.556198C11.0743 1.01564 11.5009 1.47507 12.4198 2.2955C16.6533 6.16798 20.8211 10.0733 25.0218 13.9786C26.8267 15.6523 28.5989 17.3588 30.4695 18.9997C31.1587 19.5904 31.454 20.0827 30.9289 20.9359C29.8459 22.7409 28.8614 24.6115 27.5815 26.8759C18.4582 18.0152 9.56465 9.38414 0.44135 0.556198L-0.904173 0.556198C-0.904173 0.851562 -0.608814 1.27817 -0.0837319 1.80324ZM25.5468 93.9552C28.9927 81.8783 32.3729 69.8998 35.8516 57.6917C37.9847 58.9059 39.6912 59.8577 41.3649 60.8094C42.3166 61.3673 42.6448 62.0236 42.251 63.205C39.7569 71.1141 37.394 79.0231 34.9655 86.9322C34.3748 88.9012 34.4732 88.9997 36.4751 89.4263C41.89 90.6406 47.2721 91.8877 52.687 93.1347C55.3781 93.7583 58.1019 94.4146 60.793 95.0053C61.6134 95.1694 62.1057 95.432 62.0729 96.3509C62.04 98.4184 62.0729 100.453 62.0729 102.882C49.7006 100.617 37.8534 97.0072 25.5468 93.9552ZM58.988 69.3091C58.4301 70.589 57.8394 71.9017 57.2487 73.1816C55.9688 75.9383 56.1 76.2665 59.0208 76.8572C60.5304 77.1526 62.0729 77.251 63.6153 77.4151C63.2215 79.3513 62.8933 81.2548 62.401 83.0925C62.3026 83.4864 61.6134 84.0442 61.2852 83.9786C56.6908 83.2566 52.0963 82.4034 47.5018 81.5829C47.4362 81.5829 47.3706 81.4517 47.0752 81.1563C48.7817 76.5618 50.5539 71.8689 52.326 67.1104C54.6889 67.898 56.7236 68.5543 58.988 69.3091ZM69.5225 68.7512C68.4723 70.0968 66.9627 71.311 66.3391 72.8862C64.9936 76.2337 62.5323 76.0696 59.7756 75.6429C59.2834 75.5773 58.7583 75.4789 57.905 75.3148C58.7583 73.3785 59.5787 71.5407 60.432 69.7029C60.5304 69.4732 61.0555 69.4076 61.3837 69.3748C64.0747 69.145 66.7658 68.9481 69.5225 68.7512ZM48.6833 72.8206C47.6659 75.5773 46.747 78.334 45.7625 81.0907C45.3687 82.2065 45.664 82.7644 46.9439 82.9613C49.4709 83.3551 51.965 83.9786 54.492 84.4381C57.0189 84.8647 59.5459 85.1929 62.2041 85.5539C62.0729 88.2449 61.9744 90.9031 61.8431 93.6926C53.3105 91.7236 44.8436 89.7545 36.2782 87.7855C38.8052 79.4826 41.3649 71.1469 43.9575 62.6471C46.386 63.9598 48.6833 65.1741 51.1118 66.4868C50.2913 68.6528 49.4381 70.7203 48.6833 72.8206ZM89.8037 124.344C82.912 124.18 75.9875 124.082 69.0958 124.049C67.258 124.049 65.4203 124.311 63.6809 124.443C63.6809 118.01 63.6809 111.545 63.6809 105.08C63.6809 103.013 63.7137 100.945 63.6809 98.8778C63.6481 97.4338 63.4184 96.0227 63.4184 94.5787C63.3856 91.9205 63.3199 89.2294 63.5168 86.5712C63.6809 84.4381 64.1404 82.3049 64.5342 80.2046C65.2562 76.3649 67.5534 73.4113 69.9163 70.4578C72.6073 67.1104 76.6439 65.7977 79.8928 63.5661C80.8445 64.4521 81.7634 65.2726 82.7808 66.1915C81.0743 67.3729 79.3021 68.3574 77.8581 69.6701C72.8042 74.2646 69.5881 79.778 68.5379 86.7025C67.6847 92.2815 67.7503 97.8605 67.619 103.439C67.4878 108.526 67.9472 113.613 68.1113 118.7C68.1441 119.553 68.4067 119.881 69.2599 119.914C70.6054 119.914 71.9181 120.111 73.2637 120.144C79.2037 120.242 85.1108 120.439 91.0508 120.341C97.4831 120.242 103.948 119.75 109.822 116.862C112.021 115.779 113.859 113.908 115.795 112.366C116.714 111.644 117.666 110.922 118.421 110.036C119.602 108.559 120.619 106.951 121.867 105.212C122.753 106.229 123.573 107.148 124.426 108.165C122.26 111.381 120.784 115.352 117.535 118.207C113.334 121.883 108.575 123.95 103.029 124.279C100.371 124.443 97.7128 124.705 95.0546 124.738C93.2496 124.837 91.5431 124.377 89.8037 124.344ZM62.1713 26.154C60.9242 27.8933 60.071 29.4029 58.8567 30.65C58.3645 31.1422 57.2158 31.2407 56.3954 31.1422C52.5886 30.5843 48.8473 29.5014 45.0405 29.4029C40.446 29.2716 35.9172 30.0921 32.2088 33.2754C32.1432 33.341 32.0119 33.3082 31.454 33.341C33.5543 30.1249 35.4249 27.1057 37.4924 24.2177C39.2318 21.822 41.8572 21.3298 44.5811 22.0518C47.3049 22.7737 49.9631 23.7911 52.6214 24.7428C55.6734 25.793 58.627 27.1057 62.1713 26.154ZM47.1737 30.8797C50.1929 31.0766 53.2121 32.0611 56.1329 33.0128C58.4301 33.7348 59.1193 35.7367 57.7737 37.5417C52.9824 44.0396 46.747 48.3058 38.477 48.4043C34.0138 48.4371 30.01 46.4681 26.4985 43.7114C30.6664 33.8333 37.0002 30.1577 47.1737 30.8797ZM54.8858 42.8909C56.2313 41.6767 57.5112 40.4296 58.8239 39.1825C59.6115 38.4277 60.3663 38.1652 61.4493 38.7559C62.7948 39.4779 64.2388 40.003 66.0438 40.7906C60.9571 42.6612 58.7583 47.1244 55.5421 50.5374C54.4263 51.7189 53.3434 52.9988 52.0307 54.0161C49.6022 55.8867 46.9111 55.7226 44.3185 54.4427C41.5618 53.0972 38.9036 51.5548 36.0485 50.0124C38.1816 49.8811 40.085 49.9467 41.89 49.6186C46.8783 48.6669 51.1774 46.2712 54.8858 42.8909ZM60.3663 46.8619C62.401 44.2365 64.9936 42.4643 68.0457 41.4142C69.0302 41.086 70.1788 41.1516 71.229 41.0532C71.3602 41.1844 71.4915 41.2829 71.6228 41.4142C68.8333 46.6322 66.1094 51.9158 63.1558 57.0681C62.4995 58.2496 61.154 59.1029 60.0382 59.9561C59.1193 60.6453 58.0691 60.4812 56.9861 60.0546C54.6889 59.2013 52.3588 58.4465 49.7991 57.5604C54.3607 54.6725 57.3471 50.7344 60.3663 46.8619ZM70.9336 45.3523C71.951 42.7269 73.4934 40.4624 76.086 38.9856C77.694 38.0996 79.0724 36.8525 80.6804 35.7039C79.7944 37.837 78.8755 39.8061 78.1535 41.8736C77.0705 44.8928 76.9392 48.0433 77.2018 51.1938C77.4315 54.1802 75.8563 55.8867 73.5918 57.3307C71.0977 58.9059 68.3738 59.6936 65.4531 60.0546C64.3373 60.1858 63.2543 60.3499 62.1057 60.4812C66.3063 56.1493 68.7676 50.8656 70.9336 45.3523ZM79.1708 56.2149C78.055 50.2093 78.0879 44.3021 80.9102 38.7231C83.5028 33.6692 86.9158 29.3701 92.7245 27.5323C93.5778 29.0419 94.4638 30.5843 95.1858 31.8971C93.2496 33.9317 91.2149 35.7039 89.6068 37.8042C87.1783 40.9875 85.7672 44.7287 85.3734 48.7325C85.2093 50.5374 85.2421 52.4081 85.3734 54.2458C85.7672 59.2669 89.1802 62.0236 93.184 64.2224C96.4657 66.0274 100.076 66.5525 103.718 66.7822C106.967 67.0119 110.019 66.0274 113.006 64.8459C113.268 64.7475 113.564 64.6162 113.925 64.4849C114.876 66.0602 115.762 67.6026 116.681 69.1122C109.33 75.446 97.2533 75.085 89.5084 69.7358C87.2768 68.1933 85.1436 66.454 83.0761 64.7147C80.5164 62.5159 79.7616 59.3982 79.1708 56.2149ZM177.296 10.6969C176.541 12.83 175.95 14.8319 176.77 16.9322C176.869 17.2276 176.77 17.687 176.574 17.9495C174.539 20.7719 172.209 22.3143 168.697 21.2641C167.877 21.0344 166.925 19.9514 166.663 19.0982C165.809 16.0789 167.253 13.0269 169.944 11.4844C170.305 11.2875 170.863 11.1891 171.257 11.3204C173.292 12.0095 175.195 11.4188 177.296 10.6969ZM203.878 11.2876C204.272 11.1563 204.895 11.3532 205.289 11.5829C207.98 13.2894 209.227 16.0789 208.407 19.0982C208.144 19.9842 207.127 21.0344 206.241 21.3297C203.353 22.2486 199.973 20.6406 198.496 17.9495C198.364 17.687 198.168 17.2932 198.266 17.0963C199.316 14.9303 198.463 12.9284 197.839 10.7297C199.94 11.386 201.81 12.0423 203.878 11.2876ZM322.448 24.7428C324.679 23.9224 326.878 23.0363 329.143 22.3799C335.116 20.6406 336.888 22.905 339.349 26.5149C340.793 28.6481 342.007 30.9125 343.09 33.3738C342.532 32.9472 342.04 32.4221 341.417 32.0939C336.986 29.7639 332.26 28.8122 327.272 29.5342C324.286 29.9608 321.332 30.7156 318.379 31.3063C317.394 31.5032 316.639 31.4048 316.048 30.4202C315.195 29.0419 314.112 27.7948 312.898 26.1868C316.475 27.04 319.461 25.8258 322.448 24.7428ZM338.463 32.258C342.368 33.6692 344.764 36.8853 346.996 40.1999C347.685 41.2172 348.111 42.3987 348.735 43.6129C344.633 46.665 340.202 48.6668 335.115 48.3715C332.917 48.2402 330.718 47.4526 328.618 46.6322C324.384 44.9256 320.873 42.169 318.05 38.5918C315.852 35.7695 316.311 33.9646 319.626 32.6847C325.828 30.2562 332.162 29.9936 338.463 32.258ZM316.475 39.3466C319.494 41.9064 322.448 44.5646 325.697 46.7634C328.782 48.8309 332.425 49.7827 336.166 49.9467C337.019 49.9796 337.872 49.7499 339.086 49.5858C338.463 50.0452 338.102 50.3734 337.708 50.5703C335.083 51.9486 332.49 53.4254 329.799 54.6725C326.452 56.2477 323.629 54.9678 321.332 52.5065C318.904 49.9139 316.77 47.0588 314.342 44.499C312.931 43.0222 311.159 41.8408 309.518 40.5281C310.732 40.003 312.143 39.5107 313.423 38.7887C314.736 38.0996 315.523 38.5262 316.475 39.3466ZM325.303 57.5932C322.251 58.6106 319.527 59.9233 316.639 60.3827C314.769 60.6781 313.226 58.9716 312.078 57.3963C309.288 53.5895 307.221 49.4217 305.514 45.0241C305.022 43.7442 304.365 42.53 303.676 41.086C308.96 41.0203 312.406 43.8755 315.392 47.6823C318.182 51.2923 321.037 54.9022 325.303 57.5932ZM305.022 47.2885C306.499 52.0471 309.025 56.4118 312.832 60.3171C309.452 60.1202 306.4 59.7264 303.578 58.4137C302.593 57.9542 301.674 57.3964 300.755 56.8056C298.819 55.4929 297.671 53.7536 297.835 51.2266C298.228 45.8117 297.244 40.6593 294.323 35.9008C298.819 38.8872 303.25 41.6111 305.022 47.2885ZM296.227 45.3195C297.178 50.3734 296.423 55.3617 294.914 60.2187C294.52 61.4657 293.831 62.7456 292.945 63.6645C288.449 68.259 283.428 72.0986 276.93 73.2801C271.023 74.363 265.247 73.9692 260.094 70.3265C259.537 69.9327 258.979 69.6045 258.322 69.1779C259.274 67.537 260.16 66.0602 260.948 64.7803C263.606 65.4038 266.133 66.1586 268.693 66.5853C272.237 67.176 275.748 66.4868 279.129 65.371C281.885 64.4521 284.314 62.9425 286.48 60.9735C288.646 59.0372 289.499 56.5431 289.729 53.8521C290.516 44.9913 287.3 37.9027 280.179 32.5534C280.048 32.4549 279.949 32.3565 279.752 32.1924C280.638 30.65 281.491 29.0747 282.41 27.4667C290.484 30.7813 294.684 37.0494 296.227 45.3195ZM286.545 78.7278C283.756 79.0888 281.032 79.6139 278.374 78.4653C276.142 77.5135 274.009 76.4306 272.204 75.6101C275.289 74.8553 278.735 74.1333 282.082 73.116C283.625 72.6565 285.101 71.7376 286.414 70.7531C288.974 68.8497 291.37 69.506 293.897 70.7859C297.474 72.5909 299.672 75.7742 302.167 78.9247C296.883 77.8745 291.698 78.0386 286.545 78.7278ZM238.435 110.823C240.929 110.725 242.537 111.808 243.882 113.679C246.442 117.223 247.099 121.325 247.492 125.821C243.193 121.719 238.238 119.356 233.085 117.321C230.099 116.14 227.507 114.532 225.898 111.578C225.078 110.069 223.897 108.789 223.043 107.607C225.734 108.493 228.491 109.675 231.412 110.331C233.676 110.856 236.105 110.922 238.435 110.823ZM152.42 107.181C149.171 111.283 147.07 115.943 141.623 117.551C137.422 118.798 130.695 122.441 127.675 125.821C127.905 120.833 128.561 118.207 130.498 114.762C131.942 112.202 133.812 110.659 137.061 110.823C142.378 111.119 145.43 110.758 152.42 107.181ZM69.6865 118.601C68.9317 113.482 69.3912 108.657 72.115 104.457C74.6092 100.617 78.3176 97.9917 82.6167 96.3837C85.1436 95.432 87.8019 94.7428 90.4929 94.3818C92.7901 94.0864 93.9059 95.2679 93.709 97.6308C93.348 102.586 91.379 106.951 88.5567 110.988C84.5529 116.698 78.9411 118.897 72.1479 118.568C71.3274 118.568 70.5398 118.601 69.6865 118.601ZM72.9355 78.9903C75.9219 75.085 78.7114 71.2454 83.634 69.867C85.1765 69.4404 86.5548 69.4404 87.9988 70.4249C92.5932 73.6082 97.7128 75.2491 103.62 75.1835C98.4348 77.8745 93.6106 80.0405 87.6378 78.695C82.9449 77.6448 77.9894 77.8745 72.9355 78.9903ZM109.527 74.8881C111.398 74.2318 113.268 73.5426 115.172 72.8862C113.761 76.7259 112.448 80.5656 110.938 84.3068C108.904 89.3279 105.359 92.7737 99.9772 94.0536C98.763 94.349 97.4174 94.1521 96.1375 93.988C94.6607 93.7911 94.0044 92.6753 93.9059 91.2313C93.545 86.5384 95.514 82.8628 99.0255 79.9092C102.078 77.2838 105.852 76.1352 109.527 74.8881ZM84.356 79.6795C87.605 79.778 90.8539 80.4015 94.2013 80.7953C92.5604 84.1099 89.6397 85.9477 86.1938 86.8337C83.3715 87.5557 80.4179 87.8511 77.5628 88.5075C74.8061 89.131 72.0822 89.9842 69.2927 90.7719C69.785 88.1793 70.0804 85.2913 71.0321 82.6331C71.4259 81.5173 73.2308 80.4671 74.5107 80.2702C77.7597 79.7451 81.0743 79.581 84.356 79.6795ZM75.1999 90.4109C77.3987 89.8202 79.6959 89.492 81.9931 89.0982C85.3734 88.5074 88.8192 88.1465 91.8056 85.5867C91.6415 87.7198 91.6087 89.5576 91.2477 91.297C91.1164 91.8549 90.0991 92.4128 89.3771 92.6097C84.2904 94.0208 79.3021 95.5961 75.1999 99.1075C72.6401 101.306 70.1788 103.571 69.3255 107.049C69.1615 107.017 68.9646 106.984 68.8005 106.951C69.0302 103.439 69.2271 99.9608 69.4896 96.4493C69.7522 92.9378 72.1479 91.2641 75.1999 90.4109ZM94.6279 101.273C95.9735 96.7775 96.0391 96.7775 100.699 96.3509C101.126 96.318 101.585 96.2524 102.307 96.1868C98.5989 101.109 99.1568 106.951 97.7784 112.235C96.6298 116.567 94.8577 118.24 90.4929 118.831C89.7053 118.929 88.8848 118.995 88.0644 118.995C85.7015 119.028 83.3387 118.995 80.7789 118.995C88.7208 115.484 92.3635 108.92 94.6279 101.273ZM100.666 104.063C101.126 101.011 102.34 98.3527 104.309 96.0227C105.097 95.1038 106.18 94.4802 107.525 93.3973C107.853 99.1404 108.28 104.424 108.346 109.675C108.379 111.545 107.591 113.449 107.066 115.287C106.77 116.402 105.95 117.026 104.736 117.223C102.176 117.649 99.6162 118.24 96.8595 118.798C99.3209 114.04 99.9116 109.018 100.666 104.063ZM109.626 102.685C109.527 100.387 109.035 98.123 108.838 95.8258C108.641 93.7254 109.232 91.7892 110.216 89.9186C111.07 88.3105 111.726 86.5384 112.612 84.5365C112.809 86.4071 112.94 87.9824 113.17 89.5248C113.695 93.1019 115.04 96.3837 117.141 99.2716C118.716 101.47 118.65 103.702 117.633 105.966C115.861 109.97 112.514 112.53 108.904 115.188C110.151 110.791 109.822 106.721 109.626 102.685ZM121.506 102.947C118.257 98.9435 115.5 94.71 114.647 89.5248C113.564 82.9284 114.384 76.7259 118.946 71.311C120.455 72.2299 121.998 73.116 123.146 73.8051C122.457 77.251 121.309 80.4343 121.276 83.6176C121.21 89.131 122.687 94.349 126.428 98.7465C129.48 102.324 133.451 102.98 137.75 102.849C141.59 102.75 145.266 101.602 148.416 99.567C151.206 97.762 153.568 95.2679 156.259 92.905C157.408 93.5614 158.95 94.4146 160.493 95.3007C157.736 103.965 146.939 109.806 139.457 109.379C136.831 109.248 134.239 108.986 131.613 108.756C127.38 108.395 124.164 106.229 121.506 102.947ZM169.419 61.0063C169.485 60.9406 169.616 60.9735 169.977 60.875C169.091 64.5178 168.304 68.0292 167.352 71.4751C167.221 71.9674 166.367 72.4268 165.744 72.5253C161.51 73.2144 158.721 75.7086 157.802 79.7451C156.85 83.9458 158.458 88.5403 163.348 89.9186C169.977 91.7892 174.9 85.6523 174.014 80.0077C173.554 77.2182 172.176 75.1507 170.076 73.4442C169.747 73.1816 169.354 72.6237 169.419 72.2955C170.404 68.7184 171.52 65.1413 172.57 61.5314C173.653 63.402 174.506 65.2726 175.687 66.9134C178.182 70.3265 181.956 71.7705 185.795 73.0832C186.189 73.2144 186.813 73.6739 186.813 73.9036C186.484 76.7916 186.452 79.8108 185.533 82.5346C183.071 89.8202 177.788 93.8895 170.076 94.4474C167.549 94.6115 164.89 94.7428 162.462 94.1193C160.099 93.4957 157.835 92.1502 155.833 90.7062C153.175 88.77 150.648 86.5384 149.302 83.3879C148.646 81.8455 148.186 80.2046 147.957 78.5309C147.333 73.5754 148.843 69.0466 151.304 64.8131C151.501 64.4521 152.223 64.0583 152.584 64.1568C158.721 65.6992 164.431 65.371 169.419 61.0063ZM164.89 23.1019C163.611 25.596 163.053 28.0902 163.479 30.7812C163.545 31.1094 163.282 31.6345 162.987 31.8314C161.576 32.8487 160.198 33.9317 158.655 34.7522C157.014 35.6054 155.308 35.146 154.061 33.8004C152.814 32.4877 152.354 30.9125 153.273 29.3044C154.093 27.8277 155.111 26.4821 156.095 25.1038C156.325 24.8084 156.817 24.4803 157.113 24.5459C159.837 24.9397 162.396 24.4146 164.89 23.1019ZM165.087 26.5149C165.317 25.8914 165.58 25.2679 165.875 24.6772C166.991 22.4456 166.991 22.4784 169.485 22.9378C171.552 23.3316 173.423 22.6753 175.491 21.3626C175.064 24.3818 176.213 26.5478 177.985 28.484C178.214 28.7137 178.411 29.1732 178.313 29.4685C177.361 33.4723 172.57 36.1305 168.763 34.785C166.499 33.9645 163.643 30.3218 165.087 26.5149ZM206.995 22.6424C207.324 22.544 207.947 22.7409 208.144 23.0035C210.474 26.0555 211.492 29.8623 208.538 33.1113C206.142 35.7367 202.138 35.9336 199.48 33.3738C198.496 32.4221 197.708 31.2407 196.986 30.0593C196.756 29.6655 196.855 28.7465 197.183 28.3855C198.89 26.4493 199.94 24.3162 199.612 21.3626C202.106 23.0691 204.469 23.3972 206.995 22.6424ZM217.727 24.5787C218.121 24.5459 218.711 24.7428 218.941 25.0053C219.958 26.3509 221.009 27.6964 221.763 29.1732C222.715 31.011 222.354 32.4877 220.91 33.8989C219.565 35.2116 218.022 35.5726 216.283 34.6537C214.806 33.8661 213.461 32.8159 212.115 31.8314C211.82 31.6345 211.557 31.1094 211.623 30.7812C212.181 27.9589 211.36 25.4319 210.08 22.9378C212.542 24.3818 215.036 24.8741 217.727 24.5787ZM217.103 64.8459C218.908 64.5834 220.713 64.3209 222.518 64.1568C222.912 64.1239 223.503 64.4521 223.7 64.7803C226.817 69.9327 228.064 75.5117 226.555 81.386C226.063 83.2894 224.848 85.1601 223.568 86.7025C222.059 88.5075 220.155 89.9842 218.318 91.461C214.215 94.71 209.49 95.4976 204.469 94.3818C202.138 93.8567 199.776 93.2332 197.544 92.3799C194.951 91.3954 193.376 89.2294 191.801 86.9978C188.946 83.0269 188.65 78.5309 188.289 73.9692C188.257 73.7067 188.65 73.1816 188.913 73.116C195.247 71.4095 200.235 68.1933 202.499 61.4985C203.55 65.0428 204.633 68.5543 205.617 72.1314C205.716 72.5253 205.322 73.2472 204.928 73.5426C201.581 76.2337 200.465 79.7123 201.285 83.8473C201.909 86.965 205.486 89.7873 208.571 90.1483C210.934 90.4109 212.903 89.7217 214.708 88.3762C217.858 86.0133 218.547 80.2374 216.152 76.9228C214.445 74.5928 212.378 72.8534 209.358 72.5909C208.111 72.4924 207.717 71.7705 207.488 70.6218C206.897 67.7011 206.109 64.8459 205.42 61.9252C205.355 61.6298 205.322 61.3344 205.223 60.7437C206.405 61.5314 207.356 62.1549 208.308 62.7784C210.999 64.5506 213.92 65.2726 217.103 64.8459ZM238.271 82.7644C238.336 81.6486 238.402 80.5328 238.271 79.417C238.139 78.3668 237.778 77.3495 237.516 76.2008C238.402 76.3321 239.222 76.529 240.076 76.5946C240.929 76.6603 241.815 76.5946 242.8 76.5946C244.178 80.2702 244.801 83.9786 243.554 87.8183C242.209 91.8877 239.551 93.3973 234.956 92.5112C232.331 92.0189 230.066 90.7062 228.163 88.77C227.408 88.0152 226.686 87.1947 225.931 86.4071C226.719 84.7991 227.474 83.2894 228.261 81.6814C229.115 82.469 229.902 83.3879 230.887 84.0771C231.838 84.7662 232.921 85.3241 234.037 85.6851C236.334 86.5056 238.074 85.2585 238.271 82.7644ZM230.394 92.2487C233.151 94.0864 236.302 94.6443 239.551 93.988C242.701 93.3645 245.491 88.9997 245.523 84.9303C245.523 83.4863 245.589 82.0096 245.392 80.5984C245.195 79.1872 244.703 77.8089 244.309 76.3649C246.245 75.7742 248.083 75.2163 250.118 74.5928C251.726 77.6448 252.645 80.8937 252.448 84.3068C252.251 87.6214 251.693 90.9031 250.085 93.988C247.985 97.9261 245.326 100.945 240.535 101.274C232.101 101.831 225.439 98.6809 220.418 91.7892C221.96 90.3452 223.404 88.9997 224.783 87.687C226.653 89.2623 228.393 90.9359 230.394 92.2487ZM236.597 78.7606C236.827 79.8764 236.794 81.0907 236.63 82.2065C236.367 83.8802 235.284 84.4381 233.709 83.8473C231.707 83.0925 230.198 81.7142 229.049 79.942C228.721 79.417 228.622 78.695 228.589 78.0386C228.393 75.3804 228.294 72.755 228.196 70.7859C229.64 71.7376 231.51 73.2472 233.578 74.2646C235.547 75.2491 236.17 76.9228 236.597 78.7606ZM184.483 96.7447C186.222 99.5342 188.88 99.5014 190.619 96.7119C191.637 95.0382 192.293 93.1347 193.114 91.3298C194.229 92.0518 195.575 92.8722 196.855 93.7583C197.052 93.8895 197.281 94.2834 197.216 94.5131C196.395 98.5825 194.984 102.356 191.374 104.818C187.732 107.279 185.434 106.688 181.824 103.275C179.396 100.978 178.444 97.8277 177.788 94.6115C177.722 94.349 177.952 93.9224 178.182 93.7583C179.462 92.905 180.741 92.0846 181.89 91.3626C182.776 93.2004 183.465 95.071 184.483 96.7447ZM183.662 89.4263C183.662 88.4418 184.647 87.4573 185.172 86.4728C186.058 84.7334 186.878 82.9613 187.502 81.7142C188.618 83.8145 190.029 86.3415 191.309 88.9669C191.571 89.5248 191.506 90.4109 191.243 91.0344C190.554 92.7737 189.832 94.5131 188.847 96.0555C188.224 97.04 187.108 96.9744 186.189 96.1211C184.253 94.3162 183.695 91.8877 183.662 89.4263ZM177.525 98.7794C179.068 102.882 181.595 106.032 185.927 107.443C188.88 108.395 191.21 106.918 193.245 105.179C195.837 103.013 197.511 100.191 198.135 96.8103C198.266 96.0555 198.561 95.3335 198.758 94.6115C200.465 94.9725 202.04 95.3991 203.648 95.6617C204.469 95.793 204.665 96.0883 204.567 96.8759C204.14 100.978 202.729 104.588 200.137 107.837C197.052 111.677 193.343 114.433 188.454 115.319C187.403 115.516 186.189 115.319 185.172 114.958C176.967 112.267 172.373 106.393 170.568 98.1558C170.404 97.4667 170.535 96.7447 170.535 95.8914C172.34 95.4648 174.244 95.0382 176.311 94.5787C176.705 95.9899 177 97.4338 177.525 98.7794ZM183.728 54.1802C183.695 55.7883 183.826 57.462 184.187 59.0044C184.515 60.4484 186.288 61.5642 187.6 61.4657C189.241 61.3673 190.357 60.3827 190.98 58.9059C191.834 56.8384 191.604 54.6725 191.145 52.5393C190.948 51.5876 190.816 50.6359 190.619 49.5858C191.998 50.439 193.245 51.2266 194.492 52.0142C194.689 52.1455 194.951 52.3752 194.951 52.5721C195.378 56.3462 195.608 60.0546 193.048 63.3363C189.438 67.9308 183.629 66.9134 181.004 61.8267C179.494 58.9059 179.658 55.7554 180.151 52.6378C180.183 52.3752 180.544 52.0799 180.84 51.9158C181.988 51.161 183.17 50.4062 184.45 49.5858C184.187 51.161 183.761 52.6706 183.728 54.1802ZM186.222 48.995C186.484 48.0105 187.01 47.0916 187.535 45.8117C189.372 49.8155 190.488 53.5895 189.832 57.7245C189.635 58.9716 189.011 59.8905 187.666 59.9561C186.222 60.0217 185.566 59.0372 185.27 57.7573C184.581 54.7381 185.467 51.883 186.222 48.995ZM178.674 52.8675C178.674 55.1319 178.477 57.2651 178.707 59.3326C179.1 63.041 182.349 66.6181 185.566 67.537C189.963 68.7512 194.164 65.4366 195.641 61.9908C196.724 59.4638 196.855 56.8056 196.461 54.1146C196.395 53.7864 196.461 53.4254 196.461 52.9988C196.756 52.9331 196.855 52.9003 196.953 52.9003C200.99 52.7362 201.22 52.9331 201.252 57.0353C201.318 62.8441 198.857 67.176 193.606 69.7358C191.834 70.589 189.898 71.7048 188.027 71.672C182.907 71.5735 178.838 69.1122 175.917 64.8131C173.62 61.4329 173.357 57.7245 174.276 53.8521C174.375 53.491 174.834 52.9331 175.162 52.9003C176.278 52.7691 177.394 52.8675 178.674 52.8675ZM214.544 78.0714C215.003 79.2529 215.167 80.5328 215.462 81.7798C215.233 86.1118 211.721 88.9341 207.521 87.9495C205.519 87.4901 204.731 85.7508 203.845 84.2083C202.04 81.025 202.598 76.2008 206.766 74.4287C209.522 73.2472 213.231 74.8225 214.544 78.0714ZM205.453 58.6434C204.009 56.9369 203.254 54.6397 202.204 52.5393C203.747 51.6204 204.862 50.9641 205.683 50.4718C207.356 52.7362 208.8 55.1647 210.737 57.1666C214.084 60.6125 220.352 60.5796 223.076 57.1994C225.57 54.1474 225.931 50.6031 224.619 46.9932C223.897 44.9913 222.682 43.1863 221.665 41.2829C222.715 40.6594 223.831 40.003 224.98 39.3466C230.755 44.1052 231.116 52.5721 227.375 57.5604C225.767 59.7264 224.487 62.1221 221.632 62.8441C215.462 64.4521 209.785 63.6973 205.453 58.6434ZM217.924 53.2941C219.597 52.4081 220.254 50.7672 219.335 48.1418C218.744 46.4024 217.399 44.9256 216.316 43.3504C215.922 42.7597 215.397 42.2674 214.937 41.6767C217.957 40.8891 220.123 41.7423 221.632 44.2037C223.306 46.8947 224.356 49.6842 223.601 52.9659C222.19 59.0372 215.692 59.3654 212.082 56.5431C209.719 54.7053 208.374 52.1783 207.291 49.4873C207.192 49.2247 207.16 48.8638 207.258 48.634C207.914 47.3213 208.636 46.0086 209.26 44.8272C210.409 47.1572 211.426 49.5529 212.804 51.7845C213.986 53.6879 216.283 54.1802 217.924 53.2941ZM217.399 47.1572C217.792 47.8136 218.121 48.5356 218.252 49.2904C218.449 50.4062 218.35 51.7189 217.103 52.0142C216.283 52.2111 214.97 51.9158 214.379 51.3251C212.049 49.0278 211.393 45.8774 210.573 42.8581C210.343 41.9721 210.343 41.0203 210.244 39.8389C213.395 41.8408 215.594 44.3021 217.399 47.1572ZM206.372 47.4198C204.501 50.439 200.399 52.0799 196.986 51.2594C191.932 50.0452 189.044 46.5994 188.257 41.2173C189.34 40.7906 190.39 40.3968 191.473 39.9702C192.228 41.5454 192.884 43.2519 193.803 44.7615C195.477 47.551 197.446 48.1418 200.826 47.1901C202.926 46.5993 204.633 43.9411 204.37 41.6439C204.173 40.0358 204.075 38.3949 203.911 36.6556C204.961 36.4915 206.044 36.3274 207.258 36.1305C209.129 40.0686 208.636 43.777 206.372 47.4198ZM202.762 39.642C202.762 40.4624 202.893 41.2829 202.86 42.1033C202.828 44.2365 201.679 45.582 199.415 46.2055C197.905 46.6322 195.837 45.7132 194.984 44.138C194.361 42.9566 193.868 41.7095 193.343 40.4952C193.015 39.6748 193.212 38.9857 193.639 38.0996C194.656 35.9993 195.312 33.7348 196.002 31.9299C197.183 32.98 198.561 34.6865 200.334 35.6054C202.171 36.5571 202.762 37.8042 202.762 39.642ZM187.141 39.5435C182.973 39.3794 179.429 33.9317 181.07 30.1249C181.234 29.7311 181.857 29.4029 182.317 29.2388C184.942 28.3199 186.288 27.1713 187.567 24.5787C188.683 27.0728 190.423 28.6153 192.851 29.2388C193.836 29.4686 194.131 30.0264 194.262 30.9125C195.017 35.507 191.571 39.7404 187.141 39.5435ZM195.837 27.5979C195.345 27.9917 194.459 28.1558 193.803 28.0574C190.685 27.6307 187.961 24.1192 188.224 20.9359C188.257 20.7062 188.289 20.3452 188.421 20.2468C190.488 18.9669 190.652 16.6696 191.374 14.6678C192.884 16.0461 194.033 17.9495 196.395 17.9495C196.625 17.9495 196.888 18.2777 197.052 18.5074C198.988 21.2641 198.463 25.432 195.837 27.5979ZM188.88 17.5557C188.65 18.0808 187.961 18.7043 187.535 18.7043C187.075 18.7043 186.419 18.048 186.156 17.5557C184.417 13.8145 185.828 10.4015 187.502 6.66027C189.307 10.4343 190.652 13.8145 188.88 17.5557ZM186.681 20.214C186.78 20.2796 186.845 20.4765 186.878 20.6078C187.666 23.5613 183.859 28.123 180.807 28.0902C178.805 28.0574 176.311 24.0864 176.869 21.9205C177.131 20.9688 177.394 20.0499 177.689 19.131C177.952 18.3762 178.51 18.1136 179.297 17.7854C180.741 17.1291 181.956 15.9805 183.268 15.0288C183.432 14.9303 183.465 14.6678 183.662 14.3068C184.351 16.7025 184.614 18.9341 186.681 20.214ZM178.477 32.2908C178.772 32.0283 178.936 31.6673 179.396 31.0766C179.297 34.1615 180.118 36.59 181.824 38.6903C182.021 38.92 182.054 39.4123 181.956 39.7076C181.234 41.4141 180.676 43.2191 179.658 44.7287C178.543 46.4024 176.672 46.665 174.703 45.9102C173.161 45.3523 172.143 43.8098 172.176 41.8736C172.176 40.6922 172.274 39.5107 172.439 38.3293C172.603 37.3119 173.029 36.6556 174.112 36.0649C175.753 35.1132 177.066 33.5707 178.477 32.2908ZM171.159 36.6556C171.027 38.4278 170.83 40.1999 170.798 42.0049C170.732 44.4662 172.143 46.5337 174.178 47.1901C177.328 48.2074 179.527 47.6495 181.07 45.1554C182.054 43.5473 182.776 41.7751 183.629 40.0358C184.647 40.4296 185.73 40.8234 186.78 41.2173C186.156 46.7963 183.17 49.7498 178.805 51.1282C175.228 52.244 171.651 51.2266 169.255 48.1418C166.433 44.5318 165.711 40.4953 167.811 36.1633C169.025 36.3274 170.076 36.4915 171.159 36.6556ZM162.199 51.883C163.611 49.6514 164.628 47.1572 165.809 44.86C166.433 46.0086 167.122 47.2885 167.811 48.634C167.91 48.8309 167.975 49.1263 167.877 49.3232C166.695 52.2768 165.186 54.9678 162.56 56.9369C160.723 58.3152 156.259 58.7747 154.225 57.2322C152.092 55.6242 150.713 52.2111 151.337 49.2247C151.895 46.5337 153.273 44.2693 155.012 42.1689C155.176 41.972 155.505 41.7423 155.734 41.7423C157.178 41.6439 158.589 41.5782 160.329 41.4798C159.377 42.6284 158.491 43.5801 157.736 44.6631C156.981 45.7461 156.259 46.8947 155.734 48.109C154.815 50.2093 155.406 52.2768 157.08 53.2613C158.721 54.1802 161.018 53.7536 162.199 51.883ZM161.051 51.0297C160.296 52.0799 159.147 52.769 157.835 51.9814C156.522 51.2266 156.588 49.9139 157.047 48.6996C158.491 44.9913 161.248 42.3987 164.562 40.2327C164.497 44.2365 163.381 47.8464 161.051 51.0297ZM151.895 43.9739C149.762 47.6167 148.908 51.3579 150.877 55.4273C152.715 59.2013 156.161 60.3171 160.066 59.431C164.365 58.4465 166.663 55.3288 168.402 51.6204C168.566 51.2923 168.697 50.9641 168.861 50.6359C168.927 50.5046 169.025 50.4062 169.091 50.3077C170.273 50.9969 171.388 51.6861 172.57 52.3424C171.159 59.9889 164.333 63.6973 159.377 63.5332C157.638 63.4676 155.898 63.3363 154.192 63.041C152.485 62.7456 150.91 61.9908 149.926 60.514C148.547 58.4793 146.874 56.5103 146.086 54.2458C144.412 49.3888 145.134 44.7287 148.744 40.7578C149.204 40.2655 149.63 39.7733 150.057 39.3138C151.238 40.003 152.354 40.6594 153.601 41.3813C153.043 42.2346 152.42 43.0878 151.895 43.9739ZM166.597 74.0021C168.664 74.0349 171.027 75.7742 171.717 77.8417C172.767 80.9266 171.651 85.0944 169.124 87.1291C168.599 87.5557 167.778 88.0152 167.188 87.9167C165.284 87.6214 163.315 87.2932 161.609 86.5056C159.64 85.5867 159.902 83.4535 159.837 81.8455C159.869 77.1525 162.692 73.9692 166.597 74.0021ZM141.229 85.6851C142.903 84.9303 144.379 83.6504 145.889 82.5675C146.217 82.3377 146.381 81.9111 146.677 81.4845C147.563 83.1582 148.318 84.5693 149.007 85.9805C149.105 86.2102 149.04 86.7025 148.875 86.8994C146.71 89.0982 144.478 91.1985 141.492 92.3143C136.7 94.0864 132.171 91.7236 131.187 86.6368C130.53 83.2238 130.99 79.8764 132.303 76.7587C134.075 76.6275 135.814 76.4962 137.521 76.3649C137.225 77.7433 136.831 79.1216 136.7 80.4999C136.602 81.4845 136.7 82.5675 136.963 83.552C137.521 85.6195 139.227 86.604 141.229 85.6851ZM146.545 78.3668C146.48 79.0888 146.217 79.942 145.758 80.4671C144.806 81.5173 143.756 82.6003 142.509 83.2894C141.623 83.7817 140.048 84.1755 139.424 83.7161C138.669 83.1582 138.243 81.6486 138.275 80.5984C138.308 79.1544 138.604 77.5135 139.391 76.3321C140.179 75.1507 141.688 74.4287 142.935 73.5754C144.347 72.5581 145.791 71.6064 146.906 70.8516C146.808 73.0503 146.742 75.7086 146.545 78.3668ZM130.793 76.3649C130.563 77.251 130.301 78.1699 130.071 79.0888C129.218 82.4034 129.185 85.7508 130.465 88.9341C132.631 94.2505 136.634 95.3007 142.443 93.2988C143.986 92.7737 145.43 91.8877 146.742 90.9031C147.989 89.9514 148.974 88.6387 150.09 87.4573C151.731 88.9669 153.175 90.3124 154.684 91.7236C150.845 97.4995 145.397 100.453 138.669 101.241C137.16 101.405 135.617 101.339 134.108 101.208C129.513 100.781 126.986 97.7292 125.05 93.9224C123.048 89.9514 122.26 85.7179 122.851 81.3532C123.146 79.056 124.065 76.8244 124.689 74.5271C126.92 75.2163 128.758 75.7742 130.793 76.3649ZM160.985 99.4029C161.576 102.389 162.134 105.441 162.757 108.493C163.578 112.431 163.676 116.304 162.134 120.144C161.018 122.867 159.213 125.001 156.719 126.477C154.061 128.02 152.485 127.56 151.107 124.771C149.302 121.161 149.138 117.387 150.582 113.58C152.092 109.576 154.98 106.524 157.703 103.407C158.852 102.028 159.968 100.65 160.985 99.4029ZM130.596 125.066C134.337 122.802 138.21 120.833 142.082 118.798C143.559 118.01 145.167 117.42 146.874 116.698C146.972 121.358 144.642 124.64 141.36 127.495C138.144 130.284 135.026 133.238 131.909 136.126C131.384 136.618 131.055 137.274 130.465 138.095C129.644 135.863 128.791 133.796 128.135 131.695C127.249 128.709 127.872 126.74 130.596 125.066ZM135.847 133.993C138.243 131.761 140.901 129.759 143.296 127.495C144.839 126.051 146.053 124.279 147.464 122.605C148.121 124.049 149.007 125.69 149.565 127.462C149.729 127.954 149.072 128.84 148.646 129.431C146.349 132.253 143.822 134.912 141.721 137.898C139.391 141.213 138.374 145.151 138.013 149.187C137.947 150.008 138.243 150.894 138.374 151.747C138.243 151.813 138.111 151.878 137.98 151.944C136.503 149.089 134.928 146.266 133.55 143.379C131.581 139.408 132.959 136.651 135.847 133.993ZM139.522 149.45C139.424 146.759 140.441 143.904 141.492 141.311C143.198 137.045 146.053 133.5 149.762 130.744C152.19 128.939 154.093 129.464 155.209 132.286C157.539 138.161 157.933 144.133 156.161 150.237C154.848 154.733 151.468 157.457 147.825 159.951C146.808 160.641 145.627 161.067 144.445 161.691C141.426 158.015 139.719 153.88 139.522 149.45ZM156.128 153.88C159.115 147.907 159.246 141.639 157.703 135.273C157.375 133.894 156.85 132.516 156.653 131.105C156.555 130.481 156.785 129.562 157.211 129.168C158.557 128.02 160.066 127.068 161.806 125.854C160.952 129.07 161.937 131.728 162.889 134.386C163.84 137.045 164.923 139.67 165.711 142.394C166.958 146.792 165.941 149.384 162.101 151.845C159.738 153.355 157.31 154.766 154.684 155.98C155.144 155.324 155.734 154.668 156.128 153.88ZM163.545 131.86C162.396 128.217 162.725 124.837 164.759 121.227C167.647 125.559 170.371 129.661 173.095 133.763C174.44 135.798 175.294 138.095 175.392 140.523C175.425 141.377 174.736 142.46 174.079 143.116C172.274 144.888 170.273 146.496 168.107 148.4C168.008 142.23 165.219 137.209 163.545 131.86ZM167.91 123.655C166.072 121.391 165.186 118.765 165.186 115.779C165.186 114.138 164.89 112.53 164.661 110.495C165.087 111.053 165.284 111.316 165.448 111.578C167.91 115.812 171.323 119.061 175.72 121.095C178.707 122.474 179.724 124.738 179.822 127.692C179.987 131.663 178.477 135.24 176.836 139.014C174.9 133.074 171.651 128.25 167.91 123.655ZM184.515 123.032C179.33 121.85 174.572 119.586 170.699 115.91C167.024 112.464 164.562 108.165 163.611 103.177C163.184 100.945 163.315 98.6481 163.184 96.1868C165.087 96.1868 166.663 96.1211 168.238 96.2524C168.566 96.2852 169.058 96.9744 169.124 97.401C169.912 105.08 174.112 110.561 180.38 114.565C185.172 117.649 190.16 117.551 194.919 114.433C200.629 110.725 204.501 105.671 205.781 98.845C206.273 96.154 206.339 96.154 209.096 96.154C209.916 96.154 210.737 96.154 211.623 96.154C212.607 103.243 210.31 109.051 205.978 114.171C201.745 119.192 196.034 121.752 189.832 123.196C188.158 123.622 186.222 123.425 184.515 123.032ZM214.117 99.4357C216.677 102.521 219.401 105.54 221.829 108.756C225.341 113.383 226.653 118.503 224.29 124.082C222.518 128.282 220.024 128.315 216.381 124.935C211.426 120.406 211.196 114.597 212.312 108.526C212.903 105.507 213.526 102.455 214.117 99.4357ZM198.168 121.85C203.156 119.29 207.324 115.943 210.212 110.594C210.277 116.468 209.457 121.522 205.519 125.92C202.237 129.628 199.71 133.993 198.299 139.112C196.264 134.19 194.065 129.529 196.034 124.246C196.363 123.327 197.249 122.342 198.168 121.85ZM200.53 136.782C202.828 132.778 205.42 128.939 207.914 125.066C208.702 123.852 209.522 122.671 210.409 121.358C213.034 125.723 212.378 129.956 210.802 134.255C209.49 137.865 208.374 141.574 207.291 145.249C207.028 146.102 207.127 147.054 207.028 148.432C204.6 146.234 202.138 144.462 200.235 142.164C198.955 140.687 199.612 138.39 200.53 136.782ZM209.194 143.346C209.851 140.72 210.966 138.193 211.721 135.601C212.443 133.172 213.067 130.678 213.592 128.184C213.723 127.528 213.461 126.773 213.362 125.92C214.97 127.068 216.414 128.053 217.792 129.103C218.744 129.825 218.547 130.777 218.252 131.761C217.136 135.666 216.184 139.604 216.414 143.707C216.578 147.153 217.136 150.566 218.81 153.65C219.236 154.438 219.827 155.16 220.221 156.21C218.35 155.094 216.447 154.044 214.609 152.896C213.395 152.141 212.213 151.288 211.13 150.369C208.866 148.531 208.538 145.971 209.194 143.346ZM217.989 145.479C217.596 140.852 218.285 136.454 219.926 132.221C221.009 129.464 222.978 128.873 225.275 130.711C230.985 135.24 234.89 140.95 235.448 148.4C235.809 153.355 233.709 157.687 230.723 161.691C223.634 158.409 218.646 153.749 217.989 145.479ZM231.97 135.666C230.362 133.468 228.425 131.531 226.555 129.529C225.603 128.512 225.144 127.659 225.964 126.281C226.686 125.066 227.145 123.688 227.802 122.211C228.458 123.327 228.918 124.508 229.705 125.329C231.609 127.265 233.709 129.004 235.711 130.842C237.417 132.385 239.255 133.861 240.732 135.601C242.078 137.209 242.964 139.145 242.274 141.442C241.093 145.249 238.96 148.531 236.761 152.206C237.647 145.676 235.448 140.458 231.97 135.666ZM232.528 126.346C229.738 123.786 228.097 120.636 228.229 116.665C233.873 119.29 239.78 121.358 244.769 125.165C247.23 127.068 247.788 128.775 246.935 131.827C246.803 132.319 246.672 132.811 246.475 133.304C245.884 134.846 245.294 136.356 244.604 138.095C241.421 133.139 236.63 130.087 232.528 126.346ZM227.835 108.034C221.895 105.474 216.874 101.897 214.609 95.3335C216.119 94.4803 217.628 93.627 219.072 92.8066C220.812 94.5787 222.42 96.5806 224.389 98.123C227.802 100.814 231.806 102.291 236.17 102.717C237.91 102.882 239.682 102.849 241.388 102.652C247.164 101.995 250.085 97.9261 252.021 93.0691C254.581 86.7353 254.548 80.3687 251.496 74.1005C253.071 73.1488 254.581 72.2955 256.156 71.3438C258.618 74.363 260.258 77.7105 260.652 81.6158C261.112 86.243 260.751 90.7719 258.749 95.0382C256.747 99.2716 254.023 103.013 250.512 106.098C247.689 108.559 244.014 108.953 240.535 109.314C236.236 109.74 231.871 109.773 227.835 108.034ZM256.944 104.49C256.484 102.98 256.517 101.536 257.502 100.092C259.733 96.8431 261.374 93.2988 261.965 89.3607C262.195 87.8839 262.293 86.3743 262.457 84.7006C265.116 89.7873 267.117 94.6115 265.772 100.519C264.722 105.179 264.853 110.101 266.166 115.123C262.096 112.169 258.388 109.314 256.944 104.49ZM267.216 113.219C266.888 109.74 266.822 106.262 266.92 102.75C267.019 99.7967 267.511 96.8431 267.839 93.8239C271.154 95.432 272.992 98.2871 273.845 101.7C274.764 105.376 275.223 109.15 276.044 112.825C276.503 114.794 277.291 116.698 277.98 118.765C275.223 118.207 272.368 117.814 269.644 117.059C267.938 116.599 267.347 114.696 267.216 113.219ZM282.837 118.47C279.621 118.043 278.111 115.516 277.422 112.596C276.831 110.069 276.536 107.443 276.044 104.883C275.453 101.93 275.026 98.9106 272.631 96.2524C274.83 96.4165 276.536 96.3509 278.144 96.7447C278.8 96.9088 279.522 97.9589 279.719 98.7465C281.098 103.8 282.706 108.723 286.152 112.792C288.35 115.385 290.68 117.846 294.192 118.765C294.159 118.929 294.126 119.061 294.093 119.225C290.352 118.962 286.545 118.929 282.837 118.47ZM289.466 114.335C285.758 110.856 283.329 106.491 282.082 101.536C281.721 100.158 281.459 98.7137 281.393 97.3026C281.327 95.3335 282.41 94.1193 284.347 94.3818C287.103 94.7756 289.893 95.3992 292.518 96.3837C297.08 98.123 301.051 100.913 303.479 105.244C305.186 108.264 305.941 111.71 305.678 115.287C305.612 116.304 305.678 117.321 305.678 118.47C299.64 118.962 293.995 118.568 289.466 114.335ZM305.678 106.787C304.234 102.127 300.624 99.3701 296.752 96.9088C293.339 94.71 289.466 93.627 285.561 92.6425C284.379 92.3471 283.723 91.6907 283.723 90.378C283.69 88.9012 283.461 87.4245 283.264 85.6195C287.563 89.0982 292.682 88.7044 297.375 89.853C298.458 90.1155 299.607 90.2796 300.657 90.6406C304.07 91.7564 305.711 94.3162 305.908 97.6964C306.105 100.781 305.941 103.866 305.941 106.951C305.908 106.918 305.711 106.885 305.678 106.787ZM291.107 87.3588C288.219 86.8994 285.659 85.8492 283.428 84.0114C282.41 83.1582 281.656 81.9767 280.671 80.8281C283.395 80.4999 285.791 80.0405 288.219 79.942C291.895 79.8108 295.603 79.778 299.311 79.9749C300.624 80.0405 301.97 80.7297 303.151 81.4188C304.726 82.3377 304.529 84.1755 304.89 85.6851C305.317 87.4573 305.481 89.2951 305.777 91.1985C301.149 88.6715 296.095 88.1136 291.107 87.3588ZM281.13 91.1C280.999 93.0035 280.048 93.988 278.111 94.0865C273.55 94.3162 269.94 92.4784 267.052 89.0653C264.295 85.8492 263.146 81.8783 261.801 78.0058C261.21 76.2665 260.521 74.5271 259.832 72.5909C264.656 74.56 269.579 76.1352 274.075 78.5309C278.833 81.1235 281.459 85.3898 281.13 91.1ZM288.088 47.5182C288.514 49.7498 288.35 52.1127 288.153 54.3771C287.792 58.7747 284.675 61.0391 281.163 62.8769C277.225 64.9444 272.992 65.6992 268.594 65.1413C266.264 64.8459 264 63.927 261.637 63.2707C262.326 61.0063 262.884 59.1685 263.376 57.4948C266.034 57.7901 268.594 58.2168 271.187 58.3809C274.37 58.5778 277.16 57.3963 279.49 55.2632C281.393 53.5239 281.393 51.1282 281.196 48.8309C280.901 45.3194 279.326 42.3331 276.766 39.9046C276.044 39.2154 275.355 38.559 274.633 37.8698C276.077 36.2946 277.455 34.8506 278.833 33.341C284.084 36.6884 286.939 41.6111 288.088 47.5182ZM279.26 46.5009C280.999 52.4737 279.063 55.9196 272.368 56.9697C269.316 57.4292 266.92 56.8712 263.672 55.6242C263.672 54.8037 263.704 53.9177 263.672 53.0644C263.606 52.2112 263.442 51.3579 263.343 50.7015C265.444 50.8656 267.511 51.2266 269.579 51.1938C272.434 51.161 273.845 49.0278 272.631 46.4352C271.712 44.499 270.301 42.7597 269.086 40.9547C270.399 40.3312 271.909 39.5764 273.484 38.8216C275.913 40.9219 278.308 43.2191 279.26 46.5009ZM267.741 49.7499C266.297 49.5529 264.787 49.2576 263.442 48.6668C262.654 48.3059 262.063 47.3869 261.538 46.5993C260.193 44.6303 258.946 42.5956 257.928 41.0532C259.865 41.1516 262.457 41.3157 265.05 41.3814C267.544 41.447 271.187 45.1554 271.121 47.6495C271.088 48.995 269.546 50.0124 267.741 49.7499ZM262.129 52.7034C262.424 54.4099 262.096 56.3134 261.702 58.0199C260.882 61.4985 259.602 64.8459 257.502 67.7667C255.27 70.8844 251.923 72.4268 248.444 73.5754C246.377 74.2646 244.178 74.7897 242.012 75.1178C239.551 75.5117 237.253 74.6256 235.022 73.6082C230.755 71.6064 227.703 68.3574 225.341 64.3537C224.783 63.402 224.815 62.9097 225.57 62.1221C228.064 59.4967 230.296 56.5759 230.854 52.9003C231.182 50.7015 230.92 48.4043 230.92 45.8117C233.709 48.47 236.334 50.9313 238.927 53.3926C239.551 53.9833 239.452 54.5412 239.124 55.296C236.564 61.0063 240.24 68.2918 247.886 68.4887C251.693 68.5872 256.517 63.2707 255.336 58.7419C253.925 53.1957 248.477 50.5374 244.112 51.4892C243.456 51.6204 242.767 51.7845 242.209 52.1455C241.487 52.605 240.962 52.4409 240.469 51.9158C238.008 49.3232 235.547 46.7306 232.987 44.0396C235.022 44.0396 236.86 44.2365 238.664 43.9739C240.371 43.7442 242.143 43.3176 243.62 42.4971C245.753 41.2829 247.624 39.642 249.626 38.2308C249.954 38.0011 250.61 37.9027 250.938 38.0667C256.78 41.2829 260.948 45.943 262.129 52.7034ZM245.622 52.6378C249.166 52.5721 253.465 56.9369 253.432 60.5468C253.4 62.9097 249.855 66.3884 247.492 66.3556C243.882 66.3227 239.682 62.0892 239.747 58.5449C239.813 55.6242 242.734 52.6706 245.622 52.6378ZM247.066 38.6247C242.832 42.1033 238.074 43.8098 232.724 42.0377C230.427 41.2829 228.393 39.6092 226.194 38.2965C227.113 36.6884 227.802 35.5398 228.261 34.7193C230.788 35.8023 233.282 37.1807 235.941 37.9355C240.469 39.2482 245.983 36.0977 246.606 32.1268C247.263 27.8933 245.917 24.3818 242.471 21.822C240.929 20.6734 239.157 19.7873 237.45 18.77C238.041 17.7198 238.73 16.5712 239.419 15.3898C246.672 16.7025 250.709 23.1019 250.61 28.6153C250.577 30.3218 250.446 32.0611 250.151 33.7676C249.822 35.8023 248.641 37.312 247.066 38.6247ZM236.269 20.0499C240.01 21.6579 243.718 23.3973 244.998 27.6964C246.475 32.6846 243.62 36.229 238.796 36.7212C234.956 37.115 231.97 35.1788 229.147 32.9472C228.983 32.8159 228.852 32.5206 228.819 32.2908C228.721 30.8469 228.688 29.4357 228.589 27.7948C230.296 29.1075 231.74 30.3218 233.315 31.372C234.136 31.9299 235.153 32.3893 236.138 32.5534C238.435 32.9472 239.944 32.1268 240.666 30.2562C241.224 28.845 240.568 26.7447 238.894 25.6945C237.221 24.6443 235.35 23.8895 233.545 23.0035C232.954 22.7409 232.331 22.544 231.674 22.2815C233.118 21.4938 234.464 20.7719 235.842 20.0499C235.941 20.0499 236.138 20.0171 236.269 20.0499ZM228.622 25.4976C228.064 24.8741 227.572 24.1521 226.916 23.266C231.149 23.3644 234.759 24.6115 238.008 26.8759C238.96 27.5323 239.583 28.5168 239.222 29.7967C238.829 31.1422 237.417 31.6673 235.612 30.9453C232.757 29.7967 230.624 27.6964 228.622 25.4976ZM226.85 27.4339C227.572 30.5515 227.736 33.5707 225.603 36.393C221.009 42.4643 212.673 40.725 208.997 35.868C208.8 35.6054 208.932 34.9491 209.161 34.6209C209.621 33.9317 210.212 33.3738 210.835 32.6518C212.049 33.5707 213.198 34.5224 214.445 35.3429C217.038 37.0822 219.499 36.8197 221.632 35.0147C224.454 32.5862 223.995 29.4686 222.617 27.4339C221.763 26.154 220.779 24.9725 219.86 23.7255C220.68 23.0363 221.501 22.2815 222.485 21.461C224.487 23.0035 226.259 24.8084 226.85 27.4339ZM214.806 23.1676C214.051 22.905 213.198 22.7737 212.476 22.4455C209.719 21.1985 209.949 21.1657 210.048 18.2121C210.113 16.3743 209.424 14.4709 209.063 12.5674C211.524 12.8956 213.69 11.6814 215.692 9.90923C215.922 9.71231 216.447 9.58106 216.709 9.71233C219.991 11.1563 223.01 14.0442 222.092 18.4746C221.599 21.0016 217.399 24.0865 214.806 23.1676ZM197.15 13.552C197.281 14.1099 197.314 14.6678 197.281 15.2257C197.183 16.3086 196.428 16.7681 195.476 16.2102C194.623 15.6851 193.639 15.0944 193.114 14.2739C191.571 11.8783 190.554 9.25287 190.849 5.9711C193.868 8.03862 196.363 10.0733 197.15 13.552ZM201.318 10.1717C198.364 9.81075 196.363 7.90735 194.525 5.7742C194.065 5.24913 193.737 4.59276 193.114 3.70668C197.117 3.7395 200.465 4.55995 202.86 7.57918C203.254 8.07144 203.615 9.22005 203.386 9.41696C202.926 9.90923 202.007 10.2702 201.318 10.1717ZM181.857 3.90358C179.855 6.88999 177.689 9.35132 174.145 10.1061C173.653 10.2046 173.095 10.303 172.603 10.1717C171.717 9.94202 171.06 9.38411 171.684 8.36678C172.176 7.54633 172.734 6.69307 173.456 6.06954C175.162 4.59275 179.33 3.50977 181.857 3.90358ZM182.153 7.48072C182.678 7.02126 183.334 6.66027 184.286 6.00392C184.253 10.1061 183.4 13.4863 180.282 15.882C179.822 16.243 178.772 16.5384 178.543 16.2759C178.083 15.8164 177.722 14.9303 177.821 14.3068C178.116 11.3532 179.987 9.28568 182.153 7.48072ZM166.564 12.6003C164.858 14.9959 164.595 17.3916 165.284 19.9514C165.383 20.2796 165.153 20.8703 164.89 21.0672C161.313 23.5942 157.999 24.349 154.717 21.2969C152.223 18.9997 152.026 15.1272 154.454 12.469C155.439 11.386 156.719 10.5327 157.999 9.77794C158.36 9.54822 159.279 9.74513 159.672 10.0733C162.298 12.2065 163.151 12.5346 166.564 12.6003ZM155.308 23.6926C154.422 24.8741 153.437 26.0227 152.649 27.2698C150.024 31.4048 151.698 34.1615 155.078 36.1633C156.62 37.0822 158.524 36.7212 160.099 35.7039C161.51 34.785 162.856 33.7348 164.3 32.7175C165.022 33.6036 165.711 34.424 166.433 35.2444C164.726 38.6246 160.001 40.7578 155.603 40.2655C152.288 39.9045 148.35 36.229 147.891 32.9472C147.3 28.3199 148.514 24.3818 152.715 21.5267C153.568 22.2159 154.422 22.9378 155.308 23.6926ZM140.474 30.4859C138.505 31.6017 136.569 31.372 135.88 30.0921C135.256 28.9106 135.978 27.3354 137.914 26.2524C141.032 24.513 144.314 23.2332 148.088 23.2988C146.086 26.3508 143.559 28.7465 140.474 30.4859ZM143.198 22.183C140.934 23.2988 138.505 24.3162 136.274 25.6617C134.567 26.679 133.911 28.7794 134.403 30.1577C135.223 32.3565 137.422 33.4066 139.719 32.3237C141.524 31.5032 143.1 30.2233 144.773 29.1075C145.364 28.7137 145.856 28.2543 146.545 27.6964C146.447 29.4029 146.381 30.8797 146.316 32.3565C146.316 32.5534 146.217 32.7831 146.053 32.8816C142.87 35.3757 139.555 37.4104 135.191 36.5243C128.824 35.2444 128.627 28.2871 131.646 24.7428C133.517 22.544 135.913 21.2313 138.505 20.1811C138.768 20.0827 139.194 20.0827 139.457 20.214C140.737 20.8703 142.017 21.5595 143.198 22.183ZM130.891 23.5286C127.741 26.4821 127.281 31.897 129.808 34.9491C132.204 37.8042 135.486 38.8544 138.997 38.0011C141.688 37.3448 144.15 35.9008 146.775 34.785C147.3 35.6711 147.957 36.754 148.613 37.8698C143.92 43.6129 135.322 44.0395 130.268 40.1999C128.168 38.5918 125.805 37.312 125.116 34.5224C123.475 27.9589 124.262 22.8722 129.48 18.2121C131.088 16.7681 133.418 16.1117 135.486 15.0944C135.945 15.9805 136.274 16.604 136.634 17.2275C136.963 17.7854 137.356 18.3433 137.521 18.5402C135.289 20.2139 132.893 21.6579 130.891 23.5286ZM125.805 38.4606C127.905 40.6265 130.366 42.4971 133.254 43.2519C135.978 43.9739 138.899 43.9411 141.852 44.2693C139.49 46.7634 137.028 49.3888 134.501 51.9814C134.239 52.244 133.451 52.3096 133.057 52.1455C127.446 49.6842 120.094 52.4737 119.537 60.7109C119.34 63.4348 121.112 65.6992 123.475 67.1432C126.724 69.1122 130.924 68.62 133.615 66.2243C136.372 63.763 137.816 59.07 135.945 55.1976C135.584 54.4428 135.65 53.9505 136.142 53.4582C138.735 50.9969 141.327 48.5356 144.051 45.9758C144.051 48.0433 143.92 49.9139 144.084 51.7517C144.215 53.1957 144.478 54.8037 145.2 56.018C146.48 58.2168 148.055 60.2843 149.63 62.2862C150.221 63.041 150.352 63.5004 149.794 64.2552C148.547 65.8961 147.53 67.7011 146.152 69.2107C143.165 72.4596 139.424 74.4943 135.059 75.1507C133.451 75.4132 131.646 75.1178 130.005 74.6912C126.559 73.8051 123.212 72.5581 120.291 70.4906C117.174 68.259 115.631 64.9116 114.45 61.4657C113.728 59.3982 113.268 57.2322 112.875 55.0663C112.448 52.5393 113.367 50.2093 114.45 47.9449C116.452 43.6786 119.701 40.6593 123.704 38.2965C124.59 37.7058 125.083 37.7058 125.805 38.4606ZM132.893 53.9833C135.453 55.9852 135.913 58.9059 134.304 61.958C133.057 64.3209 130.924 65.5679 128.496 66.2243C127.577 66.454 126.264 66.1915 125.476 65.6664C123.704 64.4193 121.899 63.041 121.604 60.4812C122.162 57.4948 123.573 55.0007 126.395 53.5567C128.594 52.4081 130.826 52.3424 132.893 53.9833ZM113.629 46.5993C112.94 47.7807 112.185 48.8637 110.709 49.0278C109.101 49.2247 107.492 49.5857 105.917 49.5201C104.244 49.4216 103.653 48.2074 104.178 46.665C105.195 43.5801 108.083 41.4798 111.299 41.4142C113.432 41.3813 115.566 41.1516 117.174 41.0532C116.123 42.6612 114.811 44.5974 113.629 46.5993ZM106.213 41.0532C105.195 42.3331 104.079 43.5801 103.161 44.9584C102.143 46.468 101.487 48.2074 102.635 49.8811C103.718 51.4563 105.622 51.3907 107.296 51.3251C108.74 51.2594 110.183 50.8 111.693 50.5046C111.562 52.2111 111.463 53.9505 111.332 55.7226C107.788 57.0025 104.079 57.7573 100.371 56.4774C95.2186 54.6725 94.2998 51.6533 95.9735 46.1399C96.9252 43.0222 99.288 40.8891 101.585 38.8215C103.161 39.5764 104.703 40.3312 106.213 41.0532ZM95.7765 43.3176C94.3654 45.4835 93.6762 47.9777 93.7419 50.6359C93.8403 54.8037 96.9252 57.2323 101.093 58.1511C104.637 58.9388 108.149 58.4793 111.627 57.1338C112.251 59.2013 112.809 61.0719 113.432 63.0738C109.987 64.6162 106.541 65.6664 102.701 65.2726C98.4676 64.8459 94.5951 63.7629 91.1164 61.1704C87.2768 58.3152 86.161 54.4755 86.7517 50.0452C87.1127 47.4198 87.8347 44.8272 88.6879 42.333C90.0335 38.4605 92.9214 35.7367 96.236 33.341C97.6143 34.8178 98.9599 36.2946 100.273 37.7058C98.763 39.5435 97.0893 41.3157 95.7765 43.3176ZM119.307 118.503C119.34 118.503 119.372 118.503 119.307 118.503V118.503ZM119.241 118.568C119.044 121.325 118.847 124.016 118.65 126.707C118.618 127.035 118.552 127.528 118.355 127.626C116.55 128.479 114.745 129.267 112.645 130.186C112.448 128.02 112.284 126.215 112.153 124.377C112.12 124.082 112.251 123.622 112.448 123.458C114.68 121.785 116.977 120.176 119.241 118.568ZM104.965 125.526C106.836 125.23 108.674 124.804 110.479 124.443C110.873 126.773 111.234 129.136 111.693 131.925C114.22 130.941 116.386 130.087 118.683 129.168C119.372 131.236 120.094 133.369 120.849 135.699C116.091 137.471 111.365 139.243 106.344 141.114C105.753 137.635 105.195 134.485 104.637 131.334C104.408 129.923 104.178 128.512 103.981 127.101C103.915 126.313 103.948 125.69 104.965 125.526ZM108.772 141.705C113.006 140.294 117.174 138.62 121.506 137.012C122.72 139.276 124 141.639 125.345 144.133C116.878 146.726 108.575 149.253 100.207 151.813C98.2707 143.379 96.3016 134.912 94.2998 126.149C97.0892 126.149 99.7147 126.149 102.406 126.149C103.128 130.416 103.883 134.944 104.736 139.44C105.425 143.247 105.097 142.919 108.772 141.705ZM94.0044 162.544C90.9195 150.27 87.9003 138.193 84.8155 125.985C87.7034 125.985 90.1647 125.985 92.7245 125.985C94.07 131.728 95.4156 137.34 96.6954 142.919C97.3846 145.971 98.041 149.023 98.6645 152.108C98.8942 153.289 99.4193 153.618 100.601 153.224C107.525 151.025 114.45 148.892 121.374 146.759C122.392 146.431 123.54 146.365 124.492 145.905C126.002 145.183 126.789 145.873 127.446 147.087C128.299 148.629 129.152 150.139 130.268 152.206C118.125 155.652 106.213 159.065 94.0044 162.544ZM152.453 163.693C149.007 165.629 145.561 167.598 142.279 169.469C140.113 165.793 137.849 161.855 135.486 157.95C132.138 152.371 128.66 146.89 125.444 141.278C123.868 138.522 122.621 135.568 121.374 132.647C119.34 127.856 119.537 122.933 121.243 118.175C122.392 114.926 124.229 111.906 125.772 108.723C127.183 109.15 128.397 109.511 129.579 109.905C128.725 111.775 127.741 113.482 127.15 115.287C124.919 121.883 125.017 128.414 127.708 134.944C130.891 142.722 135.256 149.778 139.621 156.867C140.802 158.77 142.082 160.641 143.165 162.61C143.657 163.463 144.018 163.561 144.839 163.069C151.074 159.59 157.31 156.112 163.578 152.666C168.369 150.041 172.635 146.759 176.377 142.788C178.871 140.13 180.413 136.979 181.463 133.402C182.349 130.416 183.104 127.495 182.842 124.082C184.22 124.443 185.369 124.705 186.419 124.968C187.436 132.188 186.353 138.883 181.956 144.724C179.297 148.203 175.687 150.664 171.881 152.797C165.448 156.538 158.918 160.083 152.453 163.693ZM188.782 163.463C192.031 159.558 195.345 155.685 198.66 151.747C200.859 153.125 203.123 154.537 205.486 155.98C199.513 162.38 193.606 168.714 187.567 175.179C181.627 168.812 175.687 162.446 169.649 155.98C171.913 154.569 174.211 153.125 176.508 151.681C179.068 154.799 181.595 157.884 184.122 160.969C184.909 161.92 185.697 162.872 186.583 163.758C187.403 164.612 188.093 164.283 188.782 163.463ZM187.567 162.905C184.187 158.803 180.971 154.897 177.689 150.927C179.527 149.253 181.135 147.842 182.809 146.332C183.99 147.809 185.205 149.286 186.386 150.795C187.206 151.845 187.961 151.78 188.749 150.762C189.897 149.286 191.112 147.809 192.293 146.299C193.967 147.809 195.608 149.286 197.413 150.894C194.164 154.832 190.98 158.704 187.567 162.905ZM187.535 150.27C186.255 148.498 185.139 146.988 184.089 145.413C183.925 145.183 183.958 144.724 184.056 144.462C185.237 141.869 186.452 139.276 187.567 136.881C188.683 139.408 189.897 142.197 191.21 145.216C190.127 146.693 188.913 148.367 187.535 150.27ZM201.646 173.046C197.38 177.476 193.081 181.841 188.847 186.271C188.06 187.092 187.371 187.42 186.452 186.468C182.546 182.464 178.608 178.526 174.736 174.522C170.273 169.895 165.908 165.202 161.346 160.378C163.479 159.164 165.383 158.048 167.352 157.063C167.746 156.867 168.599 157.063 168.927 157.392C174.604 163.43 180.216 169.534 185.828 175.638C187.436 177.378 187.666 177.378 189.274 175.638C193.146 171.405 197.052 167.237 200.924 163.036C202.598 161.231 204.304 159.459 205.913 157.589C206.569 156.801 207.192 156.67 208.046 157.162C209.818 158.179 211.623 159.197 213.756 160.444C209.621 164.743 205.65 168.911 201.646 173.046ZM242.307 153.519C239.157 158.934 235.875 164.251 232.757 169.436C225.603 165.366 218.186 161.166 210.77 156.965C206.733 154.668 202.664 152.469 198.758 149.975C192.293 145.84 189.208 139.539 188.257 132.089C188.093 130.744 188.421 129.333 188.486 127.954C188.519 127.035 188.027 125.591 188.421 125.329C189.438 124.672 190.784 124.508 192.129 124.147C192.228 125.788 192.195 127.265 192.424 128.742C193.606 136.979 197.807 143.411 204.567 148.137C208.111 150.598 211.787 152.863 215.495 155.094C218.547 156.932 221.698 158.573 224.815 160.28C226.653 161.297 228.491 162.281 230.394 163.168C230.755 163.332 231.609 163.102 231.773 162.774C236.466 154.93 241.257 147.12 245.622 139.112C247.952 134.846 249.494 130.087 249.593 125.132C249.626 123.032 248.936 120.898 248.707 118.765C248.346 115.615 247.164 112.825 245.261 110.003C246.639 109.576 247.821 109.215 248.969 108.887C252.743 114.072 255.303 119.651 255.073 126.248C254.975 129.628 254.089 132.811 252.514 135.699C249.232 141.705 245.786 147.612 242.307 153.519ZM255.828 118.568C256.944 119.422 258.125 120.406 259.372 121.325C260.226 121.981 261.112 122.605 262.063 123.097C262.785 123.491 263.146 123.885 263.048 124.738C262.818 126.445 262.654 128.151 262.424 130.153C260.455 129.3 258.683 128.512 256.911 127.692C256.681 127.593 256.55 127.134 256.517 126.806C256.255 124.082 256.025 121.325 255.828 118.568ZM269.973 141.344C270.891 136.191 271.876 131.072 272.795 126.084C275.355 126.084 277.947 126.084 280.802 126.084C278.8 134.813 276.864 143.28 274.895 151.813C266.625 149.286 258.257 146.726 249.757 144.133C251.07 141.672 252.317 139.342 253.597 136.979C256.747 138.193 259.832 139.408 262.982 140.556C264.82 141.245 266.691 141.836 268.561 142.394C269.447 142.657 269.808 142.263 269.973 141.344ZM290.287 125.952C287.235 138.128 284.215 150.205 281.13 162.478C268.955 158.934 256.813 156.145 244.9 151.911C246.213 149.647 247.394 147.546 248.641 145.413C250.741 145.971 252.71 146.398 254.581 146.988C260.98 148.958 267.347 150.992 273.714 152.994C275.978 153.716 275.945 153.683 276.47 151.288C277.783 145.446 279.161 139.604 280.507 133.73C280.999 131.531 281.557 129.333 282.049 127.134C282.214 126.313 282.542 125.887 283.461 125.887C285.594 125.985 287.727 125.952 290.287 125.952ZM270.333 125.591C270.662 125.657 271.121 126.346 271.088 126.642C270.366 131.334 269.579 136.027 268.758 141.114C263.737 139.243 258.979 137.471 254.253 135.699C254.975 133.369 255.664 131.269 256.32 129.136C258.552 130.022 260.751 130.875 263.376 131.925C263.803 129.168 264.164 126.838 264.558 124.443C266.428 124.804 268.397 125.132 270.333 125.591ZM311.421 104.522C311.356 109.872 311.224 115.254 311.191 120.603C311.191 121.85 311.421 123.13 311.552 124.311C305.12 124.311 298.688 124.246 292.288 124.344C288.416 124.41 284.511 124.935 280.638 124.771C274.928 124.541 269.021 124.902 263.672 122.277C259.208 120.078 255.434 117.026 253.17 112.399C252.415 110.889 251.496 109.445 250.709 108.1C251.562 107.148 252.415 106.229 253.301 105.244C254.515 106.951 255.467 108.756 256.813 110.167C260.488 114.007 264.492 117.387 269.94 118.634C275.683 119.98 281.459 120.439 287.333 120.373C292.912 120.308 298.491 120.242 304.07 120.144C304.825 120.144 305.612 120.012 306.367 119.848C306.63 119.783 306.958 119.454 307.024 119.159C307.188 118.503 307.221 117.846 307.253 117.157C307.352 110.101 307.549 103.013 307.483 95.957C307.417 90.3452 306.761 84.799 304.726 79.5482C303.611 76.6931 302.035 74.1333 299.574 72.1643C298.688 71.4423 298.097 70.3265 297.211 69.5717C295.734 68.3902 294.159 67.3729 292.42 66.1586C293.437 65.2726 294.323 64.4849 295.505 63.4676C298.196 65.3054 301.346 67.0447 304.037 69.342C308.139 72.8863 310.568 77.4807 311.224 82.9613C311.782 87.5557 312.012 92.1502 311.552 96.7775C311.257 99.3701 311.454 101.963 311.421 104.522ZM328.125 81.5501C325.336 82.108 322.809 82.6331 320.249 83.0597C318.346 83.3879 316.377 83.5848 314.473 83.9458C313.325 84.1427 312.668 84.1099 312.537 82.6331C312.373 80.9266 311.815 79.2201 311.421 77.5136C313.883 77.1197 316.213 76.7259 318.838 76.2993C318.313 74.8225 317.985 73.7067 317.558 72.6237C317.131 71.5407 316.606 70.4577 316.081 69.2763C318.28 68.5543 320.38 67.898 322.71 67.1104C324.515 71.8689 326.255 76.5618 328.125 81.5501ZM324.122 66.4868C326.288 65.3054 328.683 64.0255 331.177 62.68C333.77 71.1469 336.297 79.4498 338.857 87.8183C330.357 89.7873 321.923 91.7236 313.325 93.7254C313.193 90.9031 313.029 88.3105 312.898 85.6523C317.033 84.9631 321.168 84.3068 325.303 83.5848C326.222 83.4207 327.108 83.0925 328.027 82.9941C329.471 82.8628 329.766 82.2065 329.307 80.9266C327.567 76.2008 325.894 71.4423 324.122 66.4868ZM314.079 69.3748C314.342 69.4076 314.67 69.6373 314.769 69.867C315.589 71.6064 316.344 73.4114 317.23 75.3804C315.261 75.5773 313.653 75.7086 312.078 75.8727C311.126 75.9711 310.568 75.6429 310.01 74.7897C308.73 72.8862 307.253 71.1141 305.842 69.2763C305.711 69.0794 305.612 68.8497 305.547 68.7512C308.402 68.9481 311.224 69.145 314.079 69.3748ZM349.522 94.0536C337.281 97.1385 325.27 100.158 313.029 103.21C313.029 100.617 312.996 98.4184 313.062 96.2196C313.062 95.8258 313.587 95.2022 313.948 95.1366C322.153 93.2004 330.324 91.2969 338.561 89.4592C340.629 88.9997 340.727 88.9341 340.071 86.8337C337.905 79.8108 335.706 72.8206 333.54 65.7976C333.212 64.7147 332.818 63.6317 332.72 62.5159C332.687 61.958 333.179 61.1704 333.672 60.8422C335.28 59.792 336.953 58.9388 338.922 57.823C343.221 69.703 345.978 81.8783 349.522 94.0536ZM317.558 5.61013C315.556 5.24913 313.489 5.08503 311.323 4.8225C311.52 3.9036 311.684 2.85343 312.012 1.8689C312.11 1.54073 312.701 1.21256 313.062 1.17974C314.703 1.08129 316.377 0.917164 317.952 1.1469C320.61 1.5407 323.301 2.03301 325.894 2.82062C331.932 4.69123 335.805 9.18723 338.824 14.3724C342.992 21.5267 346.93 28.845 350.999 36.0649C352.837 39.3138 354.708 42.5628 356.48 45.6476C352.706 47.8792 348.735 50.2093 344.797 52.5721C339.283 55.8867 333.836 59.3326 328.257 62.5487C324.023 65.01 319.626 67.176 314.67 67.8323C311.487 68.2262 308.336 67.898 305.416 66.7494C302.134 65.4695 299.049 63.763 295.767 62.2205C296.194 60.7437 296.555 59.5951 296.916 58.3809C297.277 58.5121 297.671 58.5121 297.9 58.709C300.69 60.9078 304.136 61.3344 307.417 62.0564C312.34 63.1394 317.066 62.1221 321.726 60.3171C329.996 57.1338 337.38 52.3096 344.895 47.7479C346.503 46.7634 348.078 45.6804 349.687 44.7287C350.376 44.3021 350.638 44.0396 350.146 43.1863C348.046 39.4123 346.175 35.5398 344.009 31.7986C341.482 27.3682 338.955 22.9378 336.067 18.7372C333.573 15.0944 330.751 11.5829 326.845 9.28568C324.876 8.13706 322.645 7.44791 320.544 6.59465C319.626 6.26647 318.608 5.80703 317.558 5.61013ZM309.025 10.7625C310.108 8.56369 312.406 8.13707 314.473 8.23554C317.066 8.33399 319.626 8.99033 322.153 9.58104C323.432 9.87641 324.614 10.5328 325.533 10.8938C322.284 12.6987 318.904 14.4381 315.655 16.4399C313.587 17.687 311.749 19.2951 309.813 20.7062C307.778 22.183 305.481 22.7409 302.987 22.8065C301.313 22.8722 299.672 23.1019 297.999 23.266C303.053 20.2139 306.499 15.9148 309.025 10.7625ZM318.05 16.5384C320.84 14.7334 323.662 12.9284 327.174 12.6331C328.552 12.5346 329.405 12.9941 330.226 13.913C331.899 15.8164 333.573 17.7526 335.444 19.8858C330.127 20.0171 325.697 21.9205 321.201 23.7255C318.28 24.8741 315.294 25.4976 312.176 24.8741C310.863 24.6115 309.616 23.9224 308.271 23.4301C311.651 21.0344 314.769 18.6715 318.05 16.5384ZM311.191 28.5496C312.34 29.7311 313.226 31.175 314.079 32.619C314.9 33.9645 314.309 35.1132 313.193 35.9664C310.076 38.3293 306.564 38.7887 302.823 38.0667C298.852 37.2791 295.767 34.8506 292.748 32.3565C290.582 30.5844 288.547 28.6809 286.578 26.9416C290.484 26.2196 294.553 25.1694 298.688 24.7428C303.25 24.2505 307.746 24.9725 311.191 28.5496ZM260.226 2.13143C260.357 1.77043 260.784 1.17974 261.079 1.21256C262.884 1.31101 264.656 1.54073 266.428 1.70482C270.432 2.09862 273.648 4.23177 276.7 6.62746C278.768 8.26834 279.851 10.5984 280.507 13.0269C281.163 15.4882 281.557 18.048 281.852 20.575C282.345 24.8084 280.704 28.4512 278.177 31.7002C276.011 34.4896 273.779 37.2135 270.465 38.6903C269.054 39.3466 267.478 39.7733 265.936 39.9702C260.816 40.6265 256.156 39.1169 251.824 36.5243C251.496 36.3274 251.365 35.507 251.398 34.9819C251.595 32.455 252.054 29.928 252.054 27.401C252.054 24.5787 250.741 22.1502 249.133 19.8858C248.707 19.2951 248.313 18.7371 247.722 17.8839C251.595 18.8356 255.205 19.656 258.749 20.6406C259.176 20.7718 259.602 21.6251 259.668 22.183C260.324 26.3509 262.753 29.206 266.724 30.1249C272.204 31.4048 277.488 28.5168 277.356 21.7236C277.291 17.687 274.731 15.6523 271.712 14.4052C268.693 13.1582 265.411 13.6832 262.654 15.8164C262.26 16.1446 261.702 16.4071 261.506 16.8337C260.587 18.8684 259.241 18.5731 257.502 17.9495C254.647 16.965 251.693 16.243 248.379 15.2913C249.199 14.9303 249.658 14.7006 250.151 14.5365C255.861 12.3705 258.421 7.57915 260.226 2.13143ZM265.772 16.0133C268.988 15.3898 273.09 16.8665 274.469 19.1638C275.88 21.5266 274.83 23.7582 273.911 25.9242C272.959 28.1886 270.793 28.1558 268.758 28.1558C265.017 28.1558 262.129 26.1868 261.309 23.1347C260.455 19.9842 262.589 16.6368 265.772 16.0133ZM227.08 4.36304C227.211 4.06768 227.408 3.67386 227.605 3.24723C228.589 1.01563 228.557 1.1469 231.018 1.77043C234.89 2.68933 239.124 8.13704 238.533 12.1408C238.107 15.0288 237.188 17.5557 234.595 19.2294C230.92 21.5923 227.408 21.9205 223.24 20.1811C223.404 18.9669 223.568 17.8839 223.732 16.8009C225.505 16.9322 227.277 17.1291 229.049 17.1619C231.576 17.2275 233.676 15.7836 234.3 13.6832C235.219 10.4999 234.628 8.33397 232.134 6.82436C230.591 5.87265 228.852 5.18347 227.08 4.36304ZM225.833 6.06954C225.997 5.93827 226.358 5.90546 226.555 6.00392C228.425 6.82436 230.427 7.44789 232.035 8.62932C233.611 9.77794 233.807 11.6814 232.889 13.5192C232.068 15.16 230.624 15.882 228.852 15.8164C227.572 15.7836 226.292 15.6195 225.045 15.4554C224.159 15.3241 223.667 14.8975 223.175 13.9786C222.256 12.3705 220.845 11.0578 219.597 9.64667C219.269 9.28568 218.81 9.05597 218.088 8.56371C221.206 8.56371 223.732 7.94014 225.833 6.06954ZM207.291 1.40946C207.422 1.21254 207.849 1.1469 208.111 1.1469C211.327 0.982806 214.642 3.57541 215.167 6.69307C215.462 8.49805 214.15 9.38414 212.935 10.2046C210.934 11.5829 207.455 11.4188 205.519 9.94203C205.322 9.81076 205.092 9.61386 205.026 9.41696C203.911 6.39774 203.911 6.39774 201.712 4.29741C203.812 3.60825 206.011 3.41132 207.291 1.40946ZM159.968 6.66026C160.46 3.54259 163.775 0.949999 167.024 1.11408C167.319 1.11408 167.746 1.21256 167.844 1.37663C169.124 3.41133 171.323 3.57541 173.423 4.23175C171.913 5.80701 170.076 6.95561 170.076 9.35131C170.076 9.58103 169.715 9.81075 169.485 9.97484C166.695 11.8783 162.396 11.2876 160.394 8.62932C160.001 8.2027 159.869 7.31662 159.968 6.66026ZM150.516 6.85716C152.289 7.94014 154.454 8.30115 156.489 8.99031C154.159 10.1389 152.518 12.1736 151.534 14.7006C151.468 14.8647 151.271 15.0616 151.107 15.1272C148.777 15.718 146.414 16.3743 144.051 15.3241C142.378 14.6021 141.754 13.1253 141.721 11.4516C141.656 9.84357 142.64 8.66214 143.953 7.80889C144.675 7.34944 145.561 7.11971 146.316 6.69307C147.76 5.93828 148.941 5.87264 150.516 6.85716ZM143.296 2.03299C146.71 0.720293 146.742 0.785906 147.957 4.39585C146.283 5.18347 144.544 5.87265 143.001 6.82436C140.409 8.43242 139.818 10.6312 140.835 13.8145C141.524 15.9149 143.559 17.2604 146.184 17.1947C147.924 17.1619 149.63 16.965 151.37 16.8337C151.534 17.9167 151.698 18.9669 151.895 20.2468C149.762 21.0672 147.497 21.7564 145.134 21.1657C141.754 20.3124 138.833 18.8356 137.324 15.2913C134.797 9.35134 138.965 3.7067 143.296 2.03299ZM93.2824 19.8201C93.6762 16.8994 94.3654 13.9786 95.2843 11.1563C96.2688 8.16986 98.6317 6.29927 101.224 4.52712C105.162 1.8689 109.56 1.50792 114.023 1.17973C114.286 1.14693 114.778 1.7048 114.876 2.0986C116.222 6.03673 117.699 9.90921 121.243 12.4362C122.818 13.552 124.623 14.3396 126.494 15.3898C123.672 16.2102 120.882 17.0306 118.093 17.8511C117.699 17.9823 117.272 18.0152 116.911 18.1792C115.697 18.8028 114.876 18.6715 114.023 17.4245C111.234 13.3879 103.981 12.6331 99.9772 16.6696C96.3016 20.378 97.4174 26.3837 100.765 28.7794C103.883 31.011 108.543 31.6345 112.284 28.0902C113.99 26.4821 115.205 24.6443 115.401 22.2487C115.5 21.1 116.091 20.6734 117.206 20.4437C120.521 19.7217 123.77 18.8356 127.183 17.9495C126.067 19.853 124.984 21.4939 124.098 23.2332C122.654 26.0555 122.851 29.1075 123.146 32.1596C123.146 32.258 123.212 32.3565 123.245 32.4549C124.065 36.4587 124.065 36.4587 120.291 38.1652C116.025 40.0686 111.66 40.6265 107.033 39.6092C103.423 38.8216 100.962 36.4587 98.6317 33.8661C97.6143 32.7175 96.7283 31.4376 95.8422 30.1905C93.6106 27.1057 92.7901 23.5613 93.2824 19.8201ZM113.958 22.2158C113.728 24.71 112.218 26.3837 110.052 27.3682C108.871 27.8933 107.525 28.0574 106.245 28.3855C101.881 28.1558 99.1896 24.8741 100.01 20.575C100.404 18.5074 102.176 17.6214 103.784 16.7681C106.147 15.4882 108.641 15.3569 111.004 16.7025C113.104 17.8839 114.187 19.7873 113.958 22.2158ZM82.0916 25.7273C84.2904 26.1211 86.522 26.5478 88.6551 26.9744C85.6031 29.5014 82.5511 32.2252 79.3021 34.7193C75.003 38.0667 70.146 39.3467 64.7967 37.6073C63.6481 37.2463 62.5979 36.4915 61.6462 35.7367C60.7601 35.0475 60.3992 34.063 60.8914 32.8488C62.762 28.0902 66.5361 25.8586 71.2946 24.9069C74.9702 24.1521 78.5145 25.1038 82.0916 25.7273ZM54.2623 23.8895C50.4882 22.544 46.6486 21.3954 42.8417 20.214C41.9885 19.9514 41.0039 19.9842 39.8225 19.8529C41.4306 17.9167 42.973 16.0461 44.4826 14.1755C46.4188 11.8126 49.0114 12.2721 51.0461 13.3551C55.1155 15.521 58.9224 18.1792 62.7948 20.6406C64.0747 21.461 65.3218 22.3799 66.6673 23.2988C62.6308 25.7929 58.5286 25.3991 54.2623 23.8895ZM62.2698 8.39961C64.0419 8.76061 65.4859 9.48259 66.3391 11.2547C68.7676 16.243 72.1807 20.3452 77.4971 23.1347C76.8408 23.2332 76.5454 23.2988 76.2501 23.2988C74.5764 23.1347 72.9027 22.9378 71.1962 22.8065C68.6036 22.5768 66.2735 21.6579 64.2716 20.017C59.71 16.243 54.853 13.0597 49.0771 11.0907C53.3762 9.25285 57.544 7.44791 62.2698 8.39961ZM30.0428 25.3663C32.537 20.9359 35.0311 16.4727 37.7222 12.1408C41.8572 5.47882 48.191 2.13142 55.8047 1.1469C57.9706 0.851533 60.2022 1.08125 62.401 1.1469C62.6308 1.1469 62.9589 1.44228 63.0246 1.672C63.3199 2.75499 63.5496 3.83795 63.7794 4.8553C61.8431 5.08502 60.0053 5.15065 58.1676 5.51166C51.1118 6.82436 45.4343 10.303 41.0039 16.0461C36.5079 21.8548 32.9964 28.2543 29.4521 34.6537C27.9097 37.476 26.4329 40.364 24.8905 43.1863C24.4639 43.9411 24.5623 44.3021 25.3171 44.7615C28.5989 46.7634 31.815 48.9294 35.1296 50.8656C39.56 53.4582 44.0232 56.0836 48.6176 58.3809C53.048 60.5796 57.6753 62.3518 62.7292 62.4502C64.7639 62.4831 66.7986 62.0893 68.8005 61.7611C70.4085 61.4985 72.0166 61.1047 73.559 60.5468C75.0686 59.9889 76.4798 59.1357 78.1207 58.348C78.5145 59.6608 78.8427 60.8094 79.2036 61.9908C75.6265 63.7958 72.476 66.3227 68.341 67.2744C62.6964 68.5543 57.3799 67.9964 52.326 65.4038C48.5848 63.5004 44.9749 61.2688 41.3321 59.1357C36.0485 56.018 30.7977 52.8347 25.514 49.7498C23.1511 48.3387 20.6898 47.0588 18.5567 45.8445C22.3635 39.0841 26.1704 32.1924 30.0428 25.3663Z" fill="white" fill-opacity="0.06"/>
</svg>