<svg width="16" height="17" viewBox="0 0 16 17" fill="none" xmlns="http://www.w3.org/2000/svg">
<g clip-path="url(#clip0_862_12425)">
<path d="M8.00387 0.178711C4.71393 0.178711 3.75175 0.182105 3.56472 0.19762C2.88957 0.253741 2.46945 0.360044 2.01175 0.587923C1.65903 0.763075 1.38084 0.966105 1.1063 1.25071C0.606299 1.76974 0.303268 2.40829 0.193571 3.16732C0.140238 3.5358 0.124723 3.61095 0.121571 5.49314C0.120359 6.12053 0.121571 6.94623 0.121571 8.05374C0.121571 11.341 0.125208 12.3022 0.140965 12.4889C0.195511 13.1459 0.298541 13.5592 0.516723 14.0113C0.933693 14.8768 1.73006 15.5265 2.66824 15.7689C2.99309 15.8525 3.35187 15.8986 3.81248 15.9204C4.00763 15.9289 5.99672 15.935 7.98703 15.935C9.97733 15.935 11.9676 15.9325 12.1579 15.9228C12.6913 15.8977 13.001 15.8562 13.3434 15.7677C14.2876 15.524 15.0695 14.884 15.4949 14.0065C15.7088 13.5653 15.8173 13.1362 15.8664 12.5135C15.8771 12.3777 15.8816 10.2133 15.8816 8.05168C15.8816 5.88974 15.8767 3.72926 15.8661 3.5935C15.8164 2.96077 15.7079 2.53532 15.487 2.08562C15.3058 1.7175 15.1046 1.44259 14.8125 1.1615C14.2911 0.663559 13.6536 0.360529 12.8938 0.250953C12.5257 0.197741 12.4524 0.181984 10.5687 0.178711H8.00387Z" fill="url(#paint0_radial_862_12425)"/>
<path d="M8.00387 0.178711C4.71393 0.178711 3.75175 0.182105 3.56472 0.19762C2.88957 0.253741 2.46945 0.360044 2.01175 0.587923C1.65903 0.763075 1.38084 0.966105 1.1063 1.25071C0.606299 1.76974 0.303268 2.40829 0.193571 3.16732C0.140238 3.5358 0.124723 3.61095 0.121571 5.49314C0.120359 6.12053 0.121571 6.94623 0.121571 8.05374C0.121571 11.341 0.125208 12.3022 0.140965 12.4889C0.195511 13.1459 0.298541 13.5592 0.516723 14.0113C0.933693 14.8768 1.73006 15.5265 2.66824 15.7689C2.99309 15.8525 3.35187 15.8986 3.81248 15.9204C4.00763 15.9289 5.99672 15.935 7.98703 15.935C9.97733 15.935 11.9676 15.9325 12.1579 15.9228C12.6913 15.8977 13.001 15.8562 13.3434 15.7677C14.2876 15.524 15.0695 14.884 15.4949 14.0065C15.7088 13.5653 15.8173 13.1362 15.8664 12.5135C15.8771 12.3777 15.8816 10.2133 15.8816 8.05168C15.8816 5.88974 15.8767 3.72926 15.8661 3.5935C15.8164 2.96077 15.7079 2.53532 15.487 2.08562C15.3058 1.7175 15.1046 1.44259 14.8125 1.1615C14.2911 0.663559 13.6536 0.360529 12.8938 0.250953C12.5257 0.197741 12.4524 0.181984 10.5687 0.178711H8.00387Z" fill="url(#paint1_radial_862_12425)"/>
<path d="M8.00025 2.23926C6.42013 2.23926 6.22182 2.24617 5.60122 2.27441C4.98182 2.30277 4.55903 2.40083 4.18909 2.54471C3.80643 2.69332 3.48182 2.89211 3.15843 3.21562C2.83479 3.53902 2.636 3.86362 2.48691 4.24617C2.34267 4.61623 2.24449 5.03914 2.21661 5.65829C2.18885 6.27889 2.18158 6.47732 2.18158 8.05744C2.18158 9.63756 2.18861 9.83526 2.21673 10.4559C2.24522 11.0753 2.34328 11.498 2.48703 11.868C2.63576 12.2507 2.83455 12.5753 3.15806 12.8987C3.48134 13.2223 3.80594 13.4216 4.18837 13.5702C4.55855 13.714 4.98146 13.8121 5.60073 13.8405C6.22134 13.8687 6.41952 13.8756 7.99952 13.8756C9.57976 13.8756 9.77746 13.8687 10.3981 13.8405C11.0175 13.8121 11.4407 13.714 11.8109 13.5702C12.1935 13.4216 12.5176 13.2223 12.8409 12.8987C13.1645 12.5753 13.3633 12.2507 13.5124 11.8681C13.6554 11.498 13.7536 11.0751 13.7827 10.456C13.8105 9.83538 13.8178 9.63756 13.8178 8.05744C13.8178 6.47732 13.8105 6.27902 13.7827 5.65841C13.7536 5.03902 13.6554 4.61623 13.5124 4.24629C13.3633 3.86362 13.1645 3.53902 12.8409 3.21562C12.5172 2.89199 12.1936 2.6932 11.8105 2.54471C11.4396 2.40083 11.0166 2.30277 10.3972 2.27441C9.77661 2.24617 9.57903 2.23926 7.99843 2.23926H8.00025ZM7.47831 3.28774C7.63322 3.2875 7.80606 3.28774 8.00025 3.28774C9.5537 3.28774 9.73782 3.29332 10.3513 3.3212C10.9185 3.34714 11.2264 3.44192 11.4315 3.52156C11.703 3.62702 11.8966 3.75308 12.1001 3.95671C12.3038 4.16035 12.4298 4.35429 12.5355 4.6258C12.6152 4.83065 12.7101 5.13853 12.7359 5.7058C12.7638 6.31914 12.7698 6.50338 12.7698 8.05611C12.7698 9.60883 12.7638 9.79308 12.7359 10.4064C12.7099 10.9737 12.6152 11.2816 12.5355 11.4864C12.4301 11.7579 12.3038 11.9513 12.1001 12.1548C11.8965 12.3584 11.7032 12.4845 11.4315 12.5899C11.2267 12.6699 10.9185 12.7645 10.3513 12.7904C9.73794 12.8183 9.5537 12.8243 8.00025 12.8243C6.44667 12.8243 6.26255 12.8183 5.64922 12.7904C5.08194 12.7642 4.77406 12.6694 4.56885 12.5898C4.29734 12.4843 4.1034 12.3583 3.89976 12.1547C3.69613 11.951 3.57006 11.7576 3.46437 11.4859C3.38473 11.2811 3.28982 10.9732 3.264 10.4059C3.23613 9.79259 3.23055 9.60835 3.23055 8.05465C3.23055 6.50095 3.23613 6.31768 3.264 5.70435C3.28994 5.13708 3.38473 4.8292 3.46437 4.62411C3.56982 4.35259 3.69613 4.15865 3.89976 3.95502C4.1034 3.75138 4.29734 3.62532 4.56885 3.51962C4.77394 3.43962 5.08194 3.34508 5.64922 3.31902C6.18594 3.29477 6.39394 3.2875 7.47831 3.28629V3.28774ZM11.1059 4.2538C10.7205 4.2538 10.4078 4.56617 10.4078 4.95174C10.4078 5.3372 10.7205 5.64992 11.1059 5.64992C11.4914 5.64992 11.8041 5.3372 11.8041 4.95174C11.8041 4.56629 11.4914 4.25356 11.1059 4.25356V4.2538ZM8.00025 5.06956C6.35019 5.06956 5.01237 6.40738 5.01237 8.05744C5.01237 9.7075 6.35019 11.0447 8.00025 11.0447C9.65031 11.0447 10.9876 9.7075 10.9876 8.05744C10.9876 6.40738 9.65031 5.06956 8.00025 5.06956ZM8.00025 6.11805C9.07128 6.11805 9.93964 6.98629 9.93964 8.05744C9.93964 9.12847 9.07128 9.99683 8.00025 9.99683C6.92909 9.99683 6.06085 9.12847 6.06085 8.05744C6.06085 6.98629 6.92909 6.11805 8.00025 6.11805Z" fill="white"/>
</g>
<defs>
<radialGradient id="paint0_radial_862_12425" cx="0" cy="0" r="1" gradientUnits="userSpaceOnUse" gradientTransform="translate(4.30745 17.1485) rotate(-90) scale(15.6156 14.5277)">
<stop stop-color="#FFDD55"/>
<stop offset="0.1" stop-color="#FFDD55"/>
<stop offset="0.5" stop-color="#FF543E"/>
<stop offset="1" stop-color="#C837AB"/>
</radialGradient>
<radialGradient id="paint1_radial_862_12425" cx="0" cy="0" r="1" gradientUnits="userSpaceOnUse" gradientTransform="translate(-2.51894 1.31376) rotate(78.6776) scale(6.98031 28.7804)">
<stop stop-color="#3771C8"/>
<stop offset="0.128" stop-color="#3771C8"/>
<stop offset="1" stop-color="#6600FF" stop-opacity="0"/>
</radialGradient>
<clipPath id="clip0_862_12425">
<rect width="16.0005" height="16" fill="white" transform="translate(-0.000244141 0.0576172)"/>
</clipPath>
</defs>
</svg>
