<svg width="16" height="17" viewBox="0 0 16 17" fill="none" xmlns="http://www.w3.org/2000/svg">
<g clip-path="url(#clip0_862_12431)">
<path d="M8.00024 16.0576C12.4185 16.0576 16.0002 12.4759 16.0002 8.05762C16.0002 3.63934 12.4185 0.0576172 8.00024 0.0576172C3.58197 0.0576172 0.000244141 3.63934 0.000244141 8.05762C0.000244141 12.4759 3.58197 16.0576 8.00024 16.0576Z" fill="#FF4500"/>
<path d="M13.3362 8.0577C13.3378 8.1673 13.3242 8.2767 13.2954 8.3825C13.2666 8.4883 13.223 8.5897 13.1658 8.6833C13.1088 8.7769 13.0388 8.8621 12.958 8.9363C12.8772 9.0105 12.7864 9.0729 12.6882 9.1217C12.6904 9.1509 12.6922 9.1803 12.6932 9.2097C12.6957 9.26834 12.6957 9.32705 12.6932 9.3857C12.6922 9.4151 12.6904 9.4445 12.6882 9.4737C12.6882 11.2657 10.6002 12.7217 8.02424 12.7217C5.44824 12.7217 3.36024 11.2657 3.36024 9.4737C3.35804 9.4445 3.35624 9.4151 3.35524 9.3857C3.35283 9.32705 3.35283 9.26834 3.35524 9.2097C3.35624 9.1803 3.35804 9.1509 3.36024 9.1217C3.20639 9.05098 3.06975 8.94767 2.95976 8.81894C2.84977 8.6902 2.76907 8.5391 2.72324 8.3761C2.67749 8.21302 2.66774 8.04195 2.69468 7.87473C2.72162 7.70751 2.78459 7.54815 2.87924 7.4077C2.97381 7.26726 3.0978 7.14908 3.24261 7.06136C3.38742 6.97364 3.54958 6.91848 3.71784 6.8997C3.88613 6.88083 4.0565 6.89879 4.21715 6.95232C4.37781 7.00585 4.5249 7.09367 4.64824 7.2097C4.87721 7.0545 5.1171 6.91607 5.36604 6.7955C5.61504 6.6751 5.87244 6.5727 6.13624 6.4895C6.40004 6.4063 6.66964 6.3425 6.94264 6.2983C7.21564 6.2541 7.49164 6.2299 7.76824 6.2257L8.36024 3.4497C8.36684 3.4175 8.37984 3.3871 8.39844 3.3599C8.41684 3.3329 8.44064 3.3097 8.46804 3.2919C8.49564 3.2741 8.52644 3.2619 8.55884 3.2559C8.59104 3.2501 8.62424 3.2507 8.65624 3.2577L10.6162 3.6497C10.814 3.3099 11.2292 3.1643 11.5958 3.3059C11.9624 3.4475 12.172 3.8345 12.09 4.2189C12.0082 4.6033 11.659 4.8713 11.2666 4.8511C10.874 4.8309 10.5542 4.5285 10.5122 4.1377L8.80024 3.7777L8.28024 6.2737C8.55344 6.2795 8.82604 6.3051 9.09564 6.3501C9.63553 6.44009 10.1596 6.60755 10.6516 6.8473C10.8974 6.96689 11.1342 7.10405 11.3602 7.2577C11.5228 7.10166 11.727 6.996 11.9482 6.9535C12.1695 6.91084 12.3984 6.93313 12.6072 7.0177C12.8161 7.10222 12.9961 7.24537 13.1254 7.4299C13.2548 7.61443 13.328 7.83247 13.3362 8.0577ZM5.39704 9.1639C5.43744 9.2609 5.49624 9.3491 5.57064 9.4233C5.64484 9.4977 5.73304 9.5565 5.83004 9.5969C5.92713 9.63705 6.03118 9.65771 6.13624 9.6577C6.45984 9.6577 6.75144 9.4627 6.87544 9.1639C6.99924 8.8649 6.93064 8.5209 6.70184 8.2921C6.47304 8.0633 6.12904 7.9947 5.83004 8.1185C5.53124 8.2425 5.33624 8.5341 5.33624 8.8577C5.33624 8.9627 5.35684 9.0667 5.39704 9.1639ZM9.97904 11.0843C10.02 11.0443 10.0434 10.9897 10.0442 10.9325C10.045 10.8751 10.0228 10.8199 9.98284 10.7789C9.94284 10.7379 9.88824 10.7145 9.83104 10.7137C9.77364 10.7129 9.71844 10.7351 9.67224 10.7697C9.55195 10.856 9.42456 10.9319 9.29144 10.9967C9.15832 11.0615 9.01996 11.115 8.87784 11.1565C8.73584 11.1979 8.59044 11.2273 8.44344 11.2443C8.29624 11.2613 8.14804 11.2657 8.00024 11.2577C7.85264 11.2643 7.70464 11.2583 7.55804 11.2399C7.41141 11.2217 7.26661 11.1909 7.12524 11.1479C6.98364 11.1051 6.84624 11.0503 6.71404 10.9843C6.58184 10.9183 6.45544 10.8411 6.33624 10.7537C6.29484 10.7197 6.24224 10.7023 6.18864 10.7049C6.13504 10.7075 6.08444 10.7301 6.04644 10.7679C6.00864 10.8059 5.98604 10.8565 5.98344 10.9101C5.98084 10.9637 5.99824 11.0163 6.03224 11.0577C6.17284 11.1637 6.32224 11.2573 6.47884 11.3377C6.63544 11.4181 6.79884 11.4847 6.96684 11.5371C7.13484 11.5895 7.30704 11.6273 7.48164 11.6503C7.65624 11.6731 7.83244 11.6809 8.00824 11.6737C8.18404 11.6809 8.36024 11.6731 8.53484 11.6503C8.88455 11.6043 9.22375 11.4986 9.53764 11.3377C9.69424 11.2573 9.84364 11.1637 9.98424 11.0577L9.97904 11.0843ZM9.83224 9.7217C9.94064 9.7229 10.0482 9.7019 10.1484 9.6603C10.2486 9.6185 10.3392 9.5569 10.4148 9.4791C10.4904 9.4013 10.5492 9.3089 10.588 9.2075C10.6269 9.10621 10.6446 8.99808 10.6402 8.8897C10.6402 8.5661 10.4452 8.2745 10.1464 8.1505C9.84744 8.0267 9.50344 8.0953 9.27464 8.3241C9.04584 8.5529 8.97724 8.8969 9.10104 9.1959C9.22504 9.4947 9.51664 9.6897 9.84024 9.6897L9.83224 9.7217Z" fill="white"/>
</g>
<defs>
<clipPath id="clip0_862_12431">
<rect width="16" height="16" fill="white" transform="translate(0.000244141 0.0576172)"/>
</clipPath>
</defs>
</svg>
